<?xml version="1.0" standalone="no"?>
<!DOCTYPE svg PUBLIC "-//W3C//DTD SVG 20010904//EN"
 "http://www.w3.org/TR/2001/REC-SVG-20010904/DTD/svg10.dtd">
<svg version="1.0" xmlns="http://www.w3.org/2000/svg"
 width="1155.000000pt" height="1280.000000pt" viewBox="0 0 1155.000000 1280.000000"
 preserveAspectRatio="xMidYMid meet">
<metadata>
Created by potrace 1.15, written by Peter Selinger 2001-2017
</metadata>
<g transform="translate(0.000000,1280.000000) scale(0.100000,-0.100000)"
fill="#000000" stroke="none">
<path d="M3848 11310 l-3 -1490 370 0 370 -1 -110 -43 c-220 -85 -388 -168
-596 -294 l-36 -22 -6 112 c-4 62 -7 317 -7 566 0 512 5 479 -82 503 -54 14
-204 6 -276 -16 -81 -25 -92 -40 -92 -133 l0 -78 -32 -9 c-88 -26 -122 -201
-71 -360 24 -74 50 -108 81 -102 l24 5 -7 -427 -7 -427 -105 -109 c-642 -666
-982 -1497 -983 -2400 0 -891 341 -1733 961 -2370 l127 -130 7 -477 c7 -466 7
-478 -11 -478 -30 0 -62 -27 -86 -73 -43 -83 -25 -286 34 -369 20 -29 53 -37
61 -15 3 6 6 -12 6 -41 1 -71 25 -95 119 -116 136 -31 296 -15 321 33 5 9 10
276 12 594 3 386 7 576 14 574 5 -2 9 -15 8 -28 -1 -16 0 -18 3 -6 6 20 31 17
26 -2 -1 -7 2 -10 8 -6 14 9 52 -14 44 -27 -4 -7 -3 -8 4 -4 14 9 55 -12 47
-24 -3 -5 0 -12 6 -16 8 -4 9 -3 5 4 -10 16 -1 15 35 -3 17 -9 27 -21 23 -27
-4 -6 -3 -8 4 -5 15 10 43 -3 35 -16 -3 -5 -1 -7 5 -4 14 9 43 -3 36 -14 -3
-5 3 -6 12 -2 12 4 15 3 10 -5 -5 -8 -1 -10 10 -5 13 5 15 3 9 -7 -5 -8 -4
-11 3 -7 15 10 43 -3 35 -16 -3 -6 -1 -7 5 -3 16 10 133 -44 125 -57 -3 -6 -1
-7 5 -3 6 4 71 -15 144 -43 402 -149 758 -213 1198 -213 436 0 797 64 1195
212 204 77 462 203 592 292 l43 29 0 -278 0 -278 -1835 3 -1835 2 0 -1518 c0
-836 3 -1547 6 -1581 l7 -61 1828 0 1829 0 2 1463 c1 804 5 1374 8 1267 3
-107 7 -196 8 -196 1 -1 20 -9 42 -18 74 -30 268 -17 345 22 39 19 45 29 45
75 0 24 5 37 13 37 67 0 124 236 88 367 -12 44 -60 103 -83 103 -14 0 -15 109
-5 752 l3 187 135 138 c500 512 811 1121 933 1825 l7 37 47 -36 c26 -20 46
-39 45 -43 -1 -4 3 -7 10 -7 36 1 52 -4 39 -12 -8 -4 54 -8 140 -7 147 1 155
2 205 29 78 41 119 82 155 156 l33 66 0 265 c0 255 -1 267 -23 315 -37 80 -85
130 -160 167 -65 32 -69 33 -197 33 -136 -1 -153 -5 -240 -60 l-30 -19 19 22
c10 12 26 24 36 27 14 5 16 12 9 48 -4 23 -13 74 -19 112 -13 83 -28 156 -40
205 -33 136 -63 236 -97 335 -13 39 -31 90 -40 115 -8 25 -19 49 -24 55 -5 5
-9 14 -9 21 0 16 -117 271 -130 284 -3 3 -12 19 -20 35 -40 82 -219 368 -240
385 -3 3 -17 21 -30 40 -13 19 -27 37 -30 40 -3 3 -21 25 -40 50 -19 25 -37
47 -40 50 -3 3 -34 39 -70 80 -36 41 -101 110 -145 153 -44 43 -92 90 -107
104 -18 18 -28 40 -31 68 l-4 40 -1 -45 c-2 -44 1 -48 69 -115 311 -306 607
-754 767 -1160 109 -276 201 -639 216 -855 l5 -75 -10 65 c-26 171 -53 314
-75 402 -151 604 -441 1128 -861 1559 l-123 126 -6 449 c-6 393 -5 447 8 430
24 -30 56 -12 83 47 47 102 55 240 20 325 -18 42 -62 82 -91 82 -23 0 -24 2
-24 88 0 79 -2 91 -23 110 -48 45 -212 53 -336 16 -97 -29 -91 6 -92 -481 -1
-236 -4 -487 -8 -560 l-6 -132 -100 60 c-139 84 -397 210 -540 263 l-120 45
368 1 367 0 0 1490 0 1490 -1835 0 -1835 0 -2 -1490z"/>
<path d="M6900 9790 c8 -5 20 -10 25 -10 6 0 3 5 -5 10 -8 5 -19 10 -25 10 -5
0 -3 -5 5 -10z"/>
<path d="M7110 9700 c19 -11 40 -19 45 -19 6 0 -6 8 -25 19 -19 11 -39 19 -45
19 -5 0 6 -8 25 -19z"/>
<path d="M7250 9635 c0 -2 23 -16 50 -30 28 -14 50 -23 50 -20 0 2 -22 16 -50
30 -27 14 -50 23 -50 20z"/>
<path d="M7380 9566 c0 -3 9 -10 20 -16 11 -6 20 -8 20 -6 0 3 -9 10 -20 16
-11 6 -20 8 -20 6z"/>
<path d="M7450 9527 c0 -5 77 -57 85 -57 3 0 4 15 4 33 -2 30 -2 30 -6 4 l-4
-27 -27 18 c-37 26 -52 34 -52 29z"/>
<path d="M2261 6734 c0 -11 3 -14 6 -6 3 7 2 16 -1 19 -3 4 -6 -2 -5 -13z"/>
<path d="M2262 6430 c0 -14 2 -19 5 -12 2 6 2 18 0 25 -3 6 -5 1 -5 -13z"/>
<path d="M9066 6023 c-3 -10 -10 -47 -16 -83 -72 -420 -279 -910 -547 -1299
-123 -178 -325 -414 -450 -526 l-53 -47 1 -61 c1 -36 4 -53 7 -41 4 12 34 46
67 75 78 70 185 180 244 249 25 30 53 62 61 70 8 8 27 31 42 52 15 20 34 42
41 50 7 7 33 42 57 78 25 36 48 67 51 70 13 12 69 99 69 108 0 6 3 12 8 14 20
9 204 353 255 478 11 25 25 59 33 76 20 45 115 331 126 379 5 22 13 56 18 75
5 19 16 71 25 115 8 44 19 91 23 105 7 21 2 30 -24 53 -29 25 -33 26 -38 10z"/>
<path d="M3351 4064 c0 -11 3 -14 6 -6 3 7 2 16 -1 19 -3 4 -6 -2 -5 -13z"/>
<path d="M7425 3639 c-385 -236 -905 -410 -1375 -458 -62 -6 3 -8 245 -8 265
1 295 2 155 7 -96 3 -161 7 -145 8 45 3 286 55 378 81 20 6 52 15 70 20 77 21
229 76 325 117 17 8 49 21 70 30 74 32 248 119 291 146 25 16 48 28 52 28 4 0
10 -15 12 -32 2 -18 5 0 5 40 1 39 1 72 0 71 -2 -1 -39 -23 -83 -50z"/>
<path d="M4390 3410 c8 -5 20 -10 25 -10 6 0 3 5 -5 10 -8 5 -19 10 -25 10 -5
0 -3 -5 5 -10z"/>
<path d="M4440 3390 c8 -5 20 -10 25 -10 6 0 3 5 -5 10 -8 5 -19 10 -25 10 -5
0 -3 -5 5 -10z"/>
<path d="M4550 3350 c8 -5 20 -10 25 -10 6 0 3 5 -5 10 -8 5 -19 10 -25 10 -5
0 -3 -5 5 -10z"/>
<path d="M4605 3330 c27 -12 43 -12 25 0 -8 5 -22 9 -30 9 -10 0 -8 -3 5 -9z"/>
<path d="M4828 3263 c7 -3 16 -2 19 1 4 3 -2 6 -13 5 -11 0 -14 -3 -6 -6z"/>
<path d="M4880 3250 c34 -11 60 -11 35 0 -11 5 -29 8 -40 8 -16 0 -15 -2 5 -8z"/>
<path d="M4965 3230 c11 -5 29 -8 40 -8 16 0 15 2 -5 8 -34 11 -60 11 -35 0z"/>
<path d="M5070 3210 c14 -4 36 -8 50 -8 22 0 22 1 -5 8 -16 4 -39 8 -50 8 -16
0 -15 -2 5 -8z"/>
<path d="M5173 3193 c9 -2 23 -2 30 0 6 3 -1 5 -18 5 -16 0 -22 -2 -12 -5z"/>
<path d="M5075 3180 c-142 -5 -137 -6 94 -8 134 -1 242 0 240 2 -9 8 -194 12
-334 6z"/>
</g>
</svg>
