<?xml version="1.0" standalone="no"?>
<!DOCTYPE svg PUBLIC "-//W3C//DTD SVG 20010904//EN"
 "http://www.w3.org/TR/2001/REC-SVG-20010904/DTD/svg10.dtd">
<svg version="1.0" xmlns="http://www.w3.org/2000/svg"
 width="1907.000000pt" height="1907.000000pt" viewBox="0 0 1907.000000 1907.000000"
 preserveAspectRatio="xMidYMid meet">
<metadata>
Created by potrace 1.11, written by Peter Selinger 2001-2013
</metadata>
<g transform="translate(0.000000,1907.000000) scale(0.100000,-0.100000)"
fill="#000000" stroke="none">
<path d="M5470 18889 c0 -5 -4 -7 -10 -4 -5 3 -10 1 -10 -5 0 -6 -4 -9 -9 -5
-5 3 -12 1 -16 -5 -4 -6 -11 -8 -16 -5 -5 4 -12 0 -15 -9 -3 -9 -12 -12 -21
-9 -11 4 -14 2 -9 -5 5 -9 1 -9 -18 -2 -20 7 -24 6 -19 -5 5 -14 -14 -21 -42
-15 -5 1 -7 -2 -3 -6 4 -4 0 -13 -10 -21 -9 -8 -11 -12 -5 -8 9 4 11 1 7 -10
-4 -9 -13 -14 -20 -11 -9 4 -14 -2 -14 -15 0 -11 -3 -18 -7 -16 -5 3 -17 -5
-28 -16 -12 -11 -14 -17 -5 -13 13 7 13 6 0 -6 -8 -7 -16 -20 -18 -28 -2 -8
-9 -18 -15 -22 -8 -5 -8 -8 -1 -8 6 0 11 -7 11 -15 0 -10 -4 -12 -12 -5 -9 7
-12 1 -10 -25 1 -19 -2 -35 -7 -35 -4 0 -8 -5 -8 -11 0 -5 6 -7 13 -3 8 5 8 2
-2 -9 -7 -9 -10 -17 -5 -17 4 0 -1 -7 -12 -15 -19 -15 -19 -15 1 -9 18 5 18 4
4 -8 -9 -7 -14 -19 -11 -27 3 -9 0 -11 -7 -7 -12 8 -9 -33 4 -54 4 -6 -1 -7
-12 -3 -16 6 -16 5 -4 -11 8 -9 10 -16 5 -15 -20 3 -35 -2 -29 -10 3 -5 -4
-13 -16 -16 -12 -4 -18 -12 -15 -21 3 -8 0 -13 -7 -11 -7 1 -11 -3 -10 -9 1
-7 -5 -11 -15 -10 -9 0 -16 -4 -15 -11 2 -7 -6 -17 -17 -23 -11 -6 -20 -17
-20 -25 0 -8 -10 -23 -22 -34 -17 -17 -24 -18 -37 -8 -12 9 -13 9 -7 0 4 -7 2
-13 -3 -13 -6 0 -11 6 -12 13 0 6 -4 3 -9 -8 -7 -17 -9 -17 -9 -2 -1 22 -14
22 -36 -3 -17 -19 -41 -18 -29 1 3 5 10 6 16 3 7 -4 8 -2 4 4 -7 12 -36 5 -36
-8 0 -5 -8 -9 -17 -9 -33 1 -52 -7 -76 -29 -19 -18 -26 -19 -37 -9 -10 10 -11
9 -5 -2 6 -11 4 -13 -9 -8 -10 4 -15 3 -11 -3 5 -9 -1 -12 -21 -9 -4 0 -10 -3
-13 -8 -11 -16 -64 -46 -56 -32 4 8 -2 4 -14 -8 -19 -20 -40 -28 -63 -24 -5 0
-8 -3 -8 -8 0 -5 -18 -11 -40 -15 -25 -4 -43 -14 -50 -26 -6 -11 -15 -18 -19
-15 -5 2 -8 -3 -7 -13 0 -9 -5 -16 -11 -15 -7 2 -13 -4 -13 -13 0 -8 -4 -13
-9 -10 -5 3 -8 -2 -7 -12 0 -9 -5 -16 -12 -14 -8 1 -11 -2 -6 -9 3 -6 2 -14
-3 -18 -17 -11 -54 -102 -46 -114 5 -9 3 -9 -8 0 -11 9 -14 7 -14 -12 0 -13 4
-21 9 -18 4 3 5 -4 2 -15 -4 -11 -2 -23 4 -27 6 -3 8 -11 5 -16 -4 -5 -2 -9 3
-9 6 0 13 -7 16 -16 4 -10 2 -13 -7 -8 -8 5 -7 2 2 -9 7 -9 10 -17 5 -17 -5 0
5 -13 21 -28 17 -15 24 -22 16 -17 -12 9 -12 7 -2 -13 7 -12 16 -20 21 -17 5
3 7 -3 5 -14 -2 -11 4 -26 13 -33 16 -12 16 -11 2 7 -14 19 -14 19 3 6 9 -7
17 -19 17 -26 0 -8 5 -15 11 -17 5 -2 11 -12 13 -23 2 -13 10 -19 21 -17 9 2
15 -1 11 -6 -4 -7 27 -9 44 -2 11 5 26 7 53 8 16 1 26 5 24 10 -3 4 5 8 18 8
36 3 38 -22 5 -56 -17 -17 -30 -27 -30 -23 0 4 -7 -3 -16 -15 -9 -13 -22 -21
-29 -18 -13 5 -29 -27 -26 -51 1 -7 -4 -13 -11 -13 -10 0 -10 -2 1 -9 9 -6 10
-11 2 -15 -6 -4 -11 -12 -11 -17 0 -6 6 -7 13 -3 9 6 9 4 -1 -8 -7 -9 -9 -19
-4 -22 10 -6 9 -77 -2 -94 -8 -13 -14 -41 -19 -90 -2 -17 -9 -37 -15 -45 -7
-8 -8 -18 -4 -22 4 -5 1 -5 -6 -1 -8 5 -24 -2 -40 -18 -51 -49 -75 -66 -85
-59 -6 3 -7 1 -3 -5 4 -7 2 -12 -4 -12 -6 0 -8 -4 -5 -10 3 -5 0 -8 -7 -5 -7
3 -21 -8 -30 -26 -10 -16 -22 -28 -27 -25 -5 3 -21 -12 -36 -35 -19 -27 -33
-38 -44 -34 -8 3 -12 3 -8 -1 4 -4 1 -14 -6 -23 -11 -14 -10 -15 8 -1 19 14
19 14 6 -3 -8 -10 -20 -16 -28 -13 -8 3 -11 1 -8 -4 6 -9 -8 -14 -28 -11 -4 1
-3 -8 3 -20 7 -11 9 -23 6 -27 -3 -3 -6 -1 -6 5 0 6 -8 14 -17 18 -14 5 -15 3
-6 -6 9 -9 9 -15 -2 -26 -8 -7 -12 -21 -9 -31 5 -14 4 -14 -4 -2 -6 8 -8 18
-6 22 3 4 3 8 0 8 -3 0 -13 -14 -22 -31 -10 -20 -11 -28 -3 -24 8 5 10 4 5 -3
-4 -7 -13 -12 -20 -12 -15 0 -58 -44 -54 -56 1 -5 -14 -26 -34 -46 -31 -30
-34 -37 -20 -41 13 -4 13 -5 -4 -6 -11 0 -27 -12 -34 -26 -8 -14 -19 -24 -25
-21 -8 3 -11 -5 -9 -20 2 -21 0 -23 -12 -13 -12 9 -13 9 -9 -3 4 -9 -1 -18
-10 -22 -10 -3 -15 -12 -11 -21 3 -8 2 -14 -3 -12 -4 1 -26 -17 -48 -40 -22
-23 -44 -39 -48 -35 -5 4 -5 2 -2 -5 4 -6 1 -17 -6 -25 -7 -7 -16 -21 -20 -30
-3 -10 -11 -18 -17 -18 -5 0 -10 -5 -10 -12 0 -7 -15 -25 -32 -41 -18 -16 -27
-26 -21 -23 9 5 11 2 7 -8 -3 -9 -9 -14 -13 -12 -8 5 -25 -15 -29 -33 -5 -23
-39 -61 -47 -53 -5 4 -5 2 -2 -4 3 -6 -2 -20 -12 -31 -26 -28 -71 -115 -65
-125 3 -4 0 -8 -6 -8 -6 0 -8 -4 -5 -10 3 -5 1 -10 -5 -10 -6 0 -8 -5 -4 -12
5 -7 2 -9 -8 -6 -8 4 -15 0 -15 -8 0 -7 5 -11 11 -7 6 3 -2 -6 -17 -20 -16
-14 -26 -31 -22 -37 3 -5 -1 -13 -10 -16 -9 -4 -14 -13 -11 -21 3 -7 -1 -16
-9 -19 -8 -4 -15 -10 -15 -16 0 -5 6 -6 13 -2 8 5 8 3 -2 -9 -7 -9 -18 -14
-24 -10 -6 3 -7 1 -3 -6 8 -12 -72 -98 -86 -94 -4 2 -7 -1 -5 -6 1 -5 -11 -21
-28 -36 -35 -34 -58 -74 -51 -92 3 -7 0 -12 -7 -10 -7 1 -11 -4 -10 -10 2 -7
-1 -13 -5 -13 -5 0 -9 -7 -10 -15 -1 -8 -3 -22 -4 -30 -1 -8 -5 -15 -9 -15 -5
0 -6 -7 -3 -15 4 -8 1 -15 -6 -15 -6 0 -9 -3 -6 -8 2 -4 -3 -23 -11 -42 -9
-19 -15 -39 -14 -44 1 -4 -4 -14 -10 -22 -6 -8 -8 -14 -3 -14 5 0 1 -5 -10
-11 -15 -9 -16 -13 -5 -20 10 -6 10 -9 2 -9 -7 0 -17 -10 -24 -21 -7 -15 -8
-19 0 -15 7 5 9 1 5 -8 -3 -9 -10 -16 -16 -16 -5 0 -7 -4 -4 -8 3 -5 -1 -21
-9 -36 -8 -14 -10 -24 -5 -21 6 4 10 1 10 -4 0 -6 -5 -11 -11 -11 -8 0 -7 -6
2 -17 10 -11 10 -14 2 -9 -7 4 -13 4 -14 -1 0 -4 -2 -19 -4 -33 -5 -32 -6
-315 -2 -357 2 -18 -2 -35 -7 -37 -7 -3 -7 -5 -1 -5 6 -1 9 -23 8 -51 0 -28 3
-53 8 -56 5 -3 6 -10 3 -16 -13 -20 -10 -53 6 -66 13 -12 13 -13 -4 -8 -16 5
-17 4 -7 -8 7 -8 9 -21 5 -28 -6 -10 -5 -10 8 0 14 11 16 11 14 -2 -1 -9 -5
-19 -9 -22 -4 -4 1 -16 10 -27 17 -20 17 -20 -1 -13 -16 5 -17 4 -6 -9 10 -12
10 -15 -1 -16 -8 0 -5 -4 6 -9 11 -5 15 -9 10 -9 -13 -1 -17 -41 -5 -41 5 0 7
-9 5 -20 -2 -11 -1 -20 3 -20 4 0 8 -27 9 -59 1 -33 8 -70 16 -83 8 -12 13
-31 12 -40 -2 -9 4 -19 12 -22 8 -3 11 -10 8 -16 -3 -5 -2 -10 4 -10 6 0 8 -7
5 -15 -4 -9 0 -15 7 -15 12 0 12 -2 1 -9 -11 -7 -11 -9 1 -14 8 -3 14 -20 15
-38 0 -19 6 -35 11 -37 6 -2 9 -8 6 -13 -8 -12 14 -51 25 -44 7 5 30 -47 36
-83 1 -8 5 -16 8 -19 6 -7 -24 -64 -39 -75 -5 -4 -7 -8 -3 -8 4 0 0 -12 -7
-27 -11 -21 -12 -29 -2 -35 7 -5 8 -8 1 -8 -6 0 -11 -35 -11 -94 -1 -52 -5
-101 -10 -108 -12 -20 -11 -648 2 -640 5 3 4 -1 -2 -9 -10 -12 -10 -18 0 -29
10 -10 9 -11 -3 -5 -13 8 -13 7 -1 -8 11 -14 11 -17 0 -17 -10 0 -10 -3 -1
-12 8 -8 8 -16 0 -32 -7 -12 -12 -35 -13 -52 -1 -17 -5 -35 -8 -42 -4 -6 -4
-13 1 -16 8 -4 7 -347 -1 -443 -2 -25 1 -43 7 -43 6 0 5 -5 -2 -12 -7 -7 -8
-17 -2 -29 7 -12 6 -20 -1 -25 -8 -4 -7 -9 2 -15 10 -6 9 -13 -6 -31 -11 -12
-13 -17 -5 -11 12 9 15 7 16 -13 1 -13 -2 -24 -8 -24 -5 0 -6 5 -2 12 4 7 3 8
-4 4 -6 -4 -9 -13 -6 -21 4 -8 9 -13 13 -10 4 2 8 -2 8 -10 0 -8 -5 -12 -10
-8 -5 3 -3 -5 3 -18 15 -27 20 -99 7 -99 -5 0 -5 -6 1 -13 9 -10 7 -19 -4 -35
-8 -12 -11 -22 -5 -22 10 0 10 -18 -2 -36 -3 -6 -3 -14 0 -18 4 -4 8 -21 9
-39 1 -18 0 -26 -3 -19 -6 15 -33 16 -33 1 0 -5 5 -7 12 -3 7 5 9 2 5 -9 -4
-12 -1 -15 11 -11 14 5 13 3 -2 -10 -11 -9 -14 -16 -8 -16 7 0 12 -5 12 -11 0
-5 -4 -8 -8 -5 -5 3 -7 -12 -5 -32 6 -69 9 -77 29 -74 15 2 16 1 5 -7 -8 -5
-21 -7 -30 -4 -11 4 -10 1 3 -9 13 -10 16 -20 11 -29 -7 -11 -6 -12 6 -2 13
10 16 10 16 -2 0 -14 -11 -19 -30 -16 -5 1 -6 -3 -3 -8 4 -5 15 -8 26 -6 12 2
18 0 15 -6 -4 -5 -12 -9 -20 -9 -8 0 -17 -5 -21 -12 -4 -6 -3 -8 3 -5 6 4 14
0 17 -9 3 -8 2 -13 -2 -10 -10 6 -42 -29 -42 -45 0 -5 -4 -7 -10 -4 -5 3 -10
-1 -10 -10 0 -10 -5 -13 -12 -9 -6 4 -8 3 -5 -4 10 -15 -3 -43 -17 -35 -6 3
-8 3 -4 -2 4 -4 2 -15 -5 -23 -10 -13 -9 -14 3 -7 8 5 4 -5 -10 -22 -14 -17
-28 -28 -33 -26 -4 2 -6 1 -5 -4 1 -4 -4 -19 -11 -32 -7 -13 -9 -21 -3 -17 5
3 -5 -24 -24 -60 -19 -37 -34 -73 -34 -80 0 -8 -5 -14 -11 -14 -5 0 -7 -4 -4
-10 3 -5 2 -10 -4 -10 -5 0 -15 -16 -22 -34 -7 -19 -17 -32 -22 -29 -5 3 -4
-4 2 -16 7 -12 8 -21 4 -20 -23 4 -34 -3 -32 -18 3 -24 -11 -54 -22 -47 -5 3
-10 -1 -10 -8 -4 -42 -19 -69 -33 -61 -6 4 -5 -1 3 -10 11 -14 11 -18 -3 -23
-10 -4 -15 -13 -12 -21 4 -8 -3 -17 -17 -23 -13 -5 -16 -9 -7 -10 12 0 11 -4
-4 -15 -14 -11 -16 -15 -5 -15 12 0 12 -2 -1 -10 -8 -5 -10 -10 -5 -10 6 0 1
-7 -9 -15 -19 -14 -33 -51 -16 -40 5 3 3 -8 -3 -24 -6 -17 -14 -28 -18 -25 -4
2 -10 -3 -13 -12 -3 -9 -2 -12 5 -8 6 3 5 -3 -3 -15 -7 -12 -16 -21 -21 -21
-4 0 -6 -4 -2 -9 3 -5 -1 -15 -8 -23 -8 -7 -12 -19 -9 -26 2 -6 -1 -12 -7 -12
-6 0 -8 -7 -5 -15 4 -8 1 -15 -5 -15 -6 0 -11 -5 -11 -11 0 -5 6 -7 12 -4 7 4
1 -4 -13 -17 -17 -15 -26 -32 -25 -50 1 -21 -1 -25 -12 -16 -10 9 -12 8 -10
-3 2 -8 8 -17 13 -21 6 -5 5 -8 -2 -8 -7 0 -13 -9 -13 -21 0 -11 -4 -17 -10
-14 -5 3 -10 1 -10 -4 0 -6 6 -11 13 -11 8 0 7 -3 -3 -9 -8 -6 -19 -7 -25 -4
-5 4 -3 -2 7 -13 13 -15 14 -21 3 -31 -7 -6 -16 -9 -19 -6 -3 4 -6 1 -6 -6 0
-7 -5 -9 -12 -5 -7 4 -8 3 -4 -5 4 -6 13 -9 19 -5 7 3 4 -1 -6 -9 -20 -16 -23
-31 -5 -22 7 4 6 1 -3 -7 -16 -13 -19 -19 -19 -39 0 -5 -4 -8 -9 -4 -6 3 -10
-3 -10 -12 -2 -49 -4 -53 -20 -40 -12 10 -13 9 -7 -1 5 -8 1 -19 -10 -28 -17
-13 -18 -14 -1 -8 16 6 16 4 6 -20 -7 -14 -17 -26 -22 -26 -5 0 -3 8 4 18 13
15 12 16 -3 3 -10 -7 -16 -17 -13 -21 3 -5 2 -10 -2 -13 -5 -2 -3 -3 2 -1 6 1
11 -7 11 -17 0 -13 -4 -15 -12 -8 -8 7 -15 6 -20 -2 -4 -8 -3 -9 4 -5 7 4 12
3 12 -2 0 -5 -10 -14 -23 -21 -12 -6 -14 -9 -4 -6 10 3 15 1 12 -5 -3 -6 -13
-10 -21 -10 -9 0 -12 -5 -8 -12 5 -7 2 -9 -8 -6 -18 8 -43 -28 -26 -38 7 -4 2
-13 -13 -25 -19 -15 -21 -21 -10 -28 9 -6 10 -11 2 -15 -6 -4 -9 -12 -6 -17 4
-5 2 -9 -4 -9 -6 0 -8 -6 -5 -14 3 -8 0 -17 -5 -21 -6 -3 -9 -11 -6 -16 4 -5
2 -9 -3 -9 -5 0 -7 -12 -4 -26 4 -21 2 -25 -9 -19 -11 7 -12 6 -3 -6 6 -8 12
-41 12 -74 0 -33 5 -61 11 -63 6 -2 8 -8 5 -13 -3 -6 0 -16 6 -24 6 -8 8 -20
4 -26 -4 -8 -3 -9 4 -5 8 5 12 0 12 -14 0 -11 7 -23 15 -26 8 -4 12 -10 9 -15
-3 -5 -1 -9 5 -9 10 0 27 -38 23 -52 -1 -5 3 -8 9 -8 5 0 7 -5 4 -10 -3 -5 -2
-10 3 -10 8 0 21 -9 68 -49 7 -5 15 -7 18 -4 3 4 6 -1 6 -10 0 -10 7 -17 16
-17 8 0 12 -5 8 -11 -4 -8 0 -8 15 0 14 8 21 8 21 1 0 -5 7 -10 16 -10 8 0 13
-4 10 -8 -2 -4 4 -9 15 -9 11 -1 17 3 13 9 -4 6 1 6 14 -1 27 -14 45 -14 36 1
-4 7 6 3 22 -8 17 -11 43 -19 61 -18 18 1 36 -2 39 -8 4 -6 10 -5 15 3 5 8 9
9 9 3 0 -5 14 -9 30 -8 17 1 30 -1 30 -5 0 -4 9 -7 20 -7 11 0 20 4 20 9 0 4
4 6 9 3 5 -3 12 1 15 10 6 15 8 15 25 0 9 -9 21 -13 25 -9 4 5 11 9 14 9 29 6
51 18 47 25 -3 4 4 6 15 4 11 -2 20 2 20 8 0 7 4 6 10 -3 7 -11 10 -11 10 -2
0 7 4 11 9 7 5 -3 13 -1 16 5 5 8 11 8 19 1 9 -8 18 -6 29 7 11 12 29 18 52
17 20 -1 33 0 30 3 -5 5 26 31 35 28 3 0 19 9 37 22 17 12 36 22 42 22 5 0 20
10 32 23 12 12 19 16 15 10 -4 -7 -2 -13 3 -13 6 0 11 4 11 8 0 7 15 11 57 14
7 1 14 7 17 14 3 8 12 11 21 8 8 -4 15 -1 15 7 0 7 3 10 6 6 7 -7 34 17 34 31
0 11 48 27 70 23 8 -2 12 1 7 5 -8 9 94 55 105 48 4 -3 5 3 1 12 -5 13 -3 16
10 11 9 -3 19 -2 22 4 4 5 10 7 15 4 4 -3 13 1 19 9 7 8 21 12 32 9 19 -5 19
-7 3 -24 -9 -11 -25 -19 -36 -19 -10 0 -18 -5 -18 -11 0 -5 -5 -7 -10 -4 -5 3
-10 0 -10 -8 0 -8 -14 -20 -30 -27 -17 -7 -30 -18 -30 -24 0 -7 -3 -7 -8 1 -6
9 -18 5 -44 -17 -19 -16 -38 -26 -42 -23 -3 3 -6 1 -6 -5 0 -7 -9 -12 -19 -12
-11 0 -26 -7 -34 -15 -8 -8 -17 -11 -21 -8 -3 4 -6 1 -6 -6 0 -7 -4 -10 -9 -6
-5 3 -12 1 -16 -5 -3 -5 -14 -10 -25 -10 -10 0 -21 -7 -24 -16 -3 -8 -10 -12
-16 -9 -5 3 -10 0 -10 -7 0 -10 -3 -9 -10 2 -7 12 -13 10 -33 -12 -14 -15 -28
-24 -31 -21 -3 4 -15 -2 -26 -12 -11 -10 -20 -14 -20 -9 0 5 -4 4 -8 -3 -4 -6
-14 -13 -22 -15 -8 -2 -24 -12 -36 -23 -11 -11 -27 -21 -35 -23 -7 -2 -20 -10
-26 -19 -7 -9 -16 -14 -19 -10 -4 4 -13 -1 -21 -11 -10 -11 -12 -12 -8 -2 4 8
-3 4 -14 -10 -11 -14 -21 -21 -21 -16 0 6 -7 1 -16 -10 -8 -10 -12 -12 -8 -4
4 8 -14 -7 -39 -34 -26 -26 -47 -45 -47 -41 0 4 -9 -3 -20 -16 -10 -13 -19
-20 -20 -16 0 4 -6 2 -14 -5 -8 -7 -12 -16 -9 -20 4 -7 -13 -12 -20 -5 -7 6
-34 -29 -29 -38 3 -5 2 -7 -3 -3 -7 7 -54 -21 -83 -49 -8 -7 -18 -10 -24 -7
-6 4 -9 3 -6 -2 3 -5 0 -15 -8 -22 -8 -7 -14 -9 -14 -5 0 4 -4 3 -8 -2 -4 -6
-26 -23 -50 -38 -24 -15 -45 -34 -49 -42 -3 -8 -9 -13 -13 -10 -13 8 -125
-104 -122 -122 2 -9 -2 -20 -10 -24 -11 -7 -11 -9 1 -9 11 0 11 -3 1 -15 -10
-12 -10 -15 0 -15 10 0 10 -3 0 -15 -9 -11 -9 -15 -1 -15 7 0 9 -5 6 -10 -3
-6 0 -10 7 -10 10 0 10 -2 1 -8 -10 -6 -10 -12 2 -28 8 -10 15 -29 15 -41 0
-13 5 -23 10 -23 6 0 10 -9 10 -20 0 -11 5 -20 10 -20 6 0 10 -6 10 -14 0 -8
5 -16 10 -18 6 -2 12 -13 13 -25 0 -12 3 -20 5 -18 8 8 29 -20 25 -32 -3 -7 0
-13 6 -13 6 0 17 -12 23 -27 7 -16 19 -37 27 -47 14 -17 14 -18 1 -12 -8 4 -6
-1 6 -11 13 -11 20 -30 20 -50 -1 -17 2 -29 5 -27 14 8 17 -26 4 -39 -11 -11
-11 -17 -2 -26 9 -10 9 -12 -3 -9 -8 2 -14 -3 -12 -9 1 -7 -4 -13 -12 -13 -7
0 -20 -8 -27 -17 -11 -15 -11 -16 1 -5 8 6 19 12 24 12 6 0 -1 -8 -14 -17 -14
-10 -29 -17 -33 -15 -5 1 -6 -2 -2 -8 3 -5 2 -10 -4 -10 -5 0 -8 -9 -6 -20 2
-11 -1 -20 -6 -20 -6 0 -7 -4 -4 -10 6 -9 -7 -14 -27 -11 -4 0 -4 -7 -1 -16 5
-12 2 -15 -10 -10 -9 3 -17 2 -17 -3 0 -5 -11 -12 -25 -16 -14 -3 -25 -11 -25
-17 0 -6 -3 -7 -7 -4 -3 4 -12 2 -20 -4 -7 -6 -13 -8 -13 -4 0 4 -12 0 -26
-10 -15 -9 -23 -12 -20 -6 4 6 2 11 -3 11 -6 0 -11 -5 -11 -10 0 -6 -8 -10
-17 -8 -10 2 -17 -2 -16 -7 1 -6 -14 -10 -33 -10 -19 1 -34 -2 -34 -7 0 -4 -9
-8 -21 -8 -13 0 -18 -4 -13 -13 5 -9 4 -9 -6 0 -8 7 -19 8 -29 3 -28 -15 -56
-23 -70 -21 -7 1 -10 -2 -6 -8 3 -7 0 -8 -9 -5 -10 4 -16 1 -16 -7 0 -11 -3
-11 -10 1 -5 8 -10 10 -10 5 0 -6 -9 -16 -21 -23 -14 -9 -19 -10 -14 -2 10 16
-37 -8 -47 -24 -5 -8 -8 -7 -8 1 0 9 -12 6 -36 -7 -19 -11 -33 -16 -29 -10 3
5 1 10 -4 10 -6 0 -11 -4 -11 -10 0 -5 -10 -15 -22 -21 -22 -12 -22 -11 -8 7
14 19 14 19 -7 1 -12 -11 -26 -16 -32 -13 -5 4 -14 -2 -20 -11 -8 -14 -10 -15
-11 -3 0 9 -3 11 -8 5 -10 -14 -56 -39 -48 -27 3 6 -2 8 -14 5 -11 -3 -17 -9
-14 -14 3 -5 -2 -9 -11 -9 -10 0 -13 5 -9 13 4 6 -2 4 -13 -5 -23 -21 -37 -23
-28 -5 4 6 0 4 -9 -7 -8 -10 -19 -15 -25 -11 -6 3 -11 0 -11 -7 0 -9 -3 -9
-10 2 -7 12 -10 12 -10 1 0 -8 -6 -11 -16 -7 -8 3 -12 2 -9 -4 3 -6 -1 -10
-10 -10 -10 0 -14 5 -10 13 4 6 1 5 -7 -4 -7 -9 -19 -14 -27 -11 -8 2 -11 0
-8 -5 3 -5 -7 -8 -24 -7 -16 1 -29 -3 -29 -9 0 -7 -5 -5 -10 3 -7 12 -10 12
-10 1 0 -9 -8 -11 -26 -7 -19 5 -24 4 -18 -5 5 -8 2 -10 -8 -6 -18 6 -19 -13
-2 -34 20 -26 28 -42 16 -36 -5 4 -2 -11 9 -32 10 -22 19 -45 19 -51 0 -5 4
-10 8 -10 4 0 9 -10 9 -22 1 -13 7 -24 13 -26 5 -2 8 -7 5 -12 -3 -5 2 -16 11
-24 11 -12 12 -16 2 -16 -10 0 -9 -3 2 -10 8 -5 11 -10 5 -10 -5 0 -2 -5 8
-11 14 -8 15 -14 7 -24 -8 -10 -8 -15 1 -21 8 -5 10 -3 5 7 -4 8 0 5 9 -6 9
-11 14 -28 12 -37 -3 -9 1 -19 9 -22 8 -3 14 -14 14 -25 0 -11 5 -23 10 -26 6
-3 10 -15 10 -26 0 -10 5 -19 10 -19 6 0 10 -9 10 -20 0 -11 5 -20 11 -20 5 0
7 -5 4 -10 -3 -6 -1 -10 5 -10 6 0 9 -4 5 -9 -3 -5 0 -13 6 -16 5 -4 8 -13 5
-21 -3 -8 1 -14 8 -14 8 0 17 -7 20 -16 6 -15 4 -15 -11 -3 -10 9 -7 0 8 -21
13 -19 27 -36 32 -38 4 -2 7 -15 7 -28 0 -13 5 -24 11 -24 5 0 8 -4 4 -9 -3
-5 3 -17 12 -27 10 -10 18 -20 18 -23 0 -3 4 -5 9 -3 5 2 4 -3 -3 -12 -9 -11
-9 -16 0 -22 8 -5 9 -3 4 6 -5 8 -4 11 3 6 6 -4 9 -13 5 -21 -3 -8 0 -15 6
-15 6 0 11 -11 11 -24 0 -14 8 -31 18 -38 9 -7 18 -20 20 -28 2 -8 8 -18 14
-21 6 -4 8 -14 5 -22 -3 -9 1 -18 9 -21 8 -3 14 -12 14 -21 0 -8 5 -15 12 -15
6 0 9 -3 5 -6 -10 -10 34 -85 46 -77 6 3 7 1 3 -6 -4 -6 -3 -17 2 -24 6 -7 12
-16 14 -22 1 -5 6 -9 10 -8 4 2 4 -5 1 -14 -4 -10 -2 -14 5 -9 7 4 10 -1 7
-14 -2 -11 0 -18 6 -15 5 4 9 -1 9 -9 0 -9 5 -16 11 -16 5 0 8 -4 5 -9 -3 -5
3 -19 13 -32 10 -13 20 -28 22 -34 2 -5 7 -9 10 -8 3 1 6 -5 7 -13 1 -8 3 -20
4 -28 1 -8 6 -14 11 -13 5 1 11 -7 13 -18 1 -11 12 -27 23 -37 12 -9 21 -21
21 -28 0 -6 4 -8 10 -5 5 3 10 1 10 -5 0 -6 5 -8 12 -4 7 4 8 3 4 -5 -4 -7 2
-20 16 -32 13 -11 17 -18 10 -14 -6 3 -12 1 -12 -4 0 -6 7 -11 16 -11 8 0 12
-5 9 -10 -3 -6 1 -13 9 -16 9 -3 13 -10 10 -15 -3 -5 0 -9 6 -9 7 0 9 -7 6
-16 -3 -8 -2 -12 4 -9 6 3 10 1 10 -5 0 -6 4 -9 9 -5 6 3 8 -4 6 -15 -3 -14 1
-20 13 -20 15 0 15 -2 2 -10 -12 -8 -10 -10 10 -11 14 0 20 -3 13 -6 -10 -3
-10 -7 0 -18 7 -7 16 -10 21 -7 5 3 6 0 2 -7 -5 -7 3 -22 18 -36 15 -14 26
-27 26 -30 -1 -22 1 -27 6 -22 8 8 25 -10 43 -45 8 -16 18 -28 23 -28 4 0 8
-7 8 -16 0 -8 4 -13 8 -10 4 2 14 -9 21 -25 7 -16 19 -29 27 -29 8 0 13 -3 13
-7 -3 -21 2 -33 16 -33 8 0 15 -4 15 -10 0 -5 11 -26 25 -46 14 -20 25 -34 25
-30 0 4 6 1 14 -6 8 -7 12 -16 9 -20 -2 -5 3 -8 11 -8 9 0 16 -4 16 -10 0 -22
2 -25 21 -32 10 -4 19 -15 19 -23 0 -9 4 -13 10 -10 5 3 10 1 10 -5 0 -6 11
-23 25 -38 14 -15 33 -35 43 -45 9 -11 16 -23 15 -28 -3 -8 11 -13 29 -10 5 0
7 -5 5 -12 -1 -6 3 -11 10 -10 7 2 10 -6 8 -17 -3 -14 1 -17 12 -13 10 4 14 2
10 -4 -4 -6 0 -14 9 -17 8 -3 12 -10 9 -16 -3 -5 -1 -10 5 -10 15 0 40 -25 40
-40 0 -6 4 -8 10 -5 5 3 10 2 10 -3 0 -5 29 -39 65 -75 35 -37 61 -67 57 -67
-4 0 1 -5 11 -11 9 -6 15 -14 12 -20 -4 -5 2 -6 11 -2 11 4 15 3 10 -5 -3 -6
3 -14 15 -17 15 -5 18 -10 9 -15 -8 -5 -5 -9 10 -13 12 -3 19 -10 16 -15 -3
-5 4 -12 15 -15 12 -3 18 -10 15 -15 -6 -10 21 -27 36 -24 5 1 7 -1 6 -6 0 -4
4 -18 10 -32 6 -14 11 -18 12 -10 0 9 7 3 16 -13 8 -15 19 -25 24 -22 10 6 15
-9 10 -30 -1 -5 1 -7 5 -3 8 8 55 -39 55 -55 0 -6 3 -8 6 -4 8 8 34 -18 34
-33 0 -6 4 -8 10 -5 6 3 10 -1 10 -9 0 -9 7 -16 16 -16 8 0 12 -4 9 -10 -3 -5
1 -10 9 -10 9 0 16 -9 16 -21 0 -11 4 -18 8 -15 11 7 53 -40 44 -49 -4 -3 2
-3 13 1 15 6 17 4 11 -11 -4 -11 -4 -16 0 -13 7 8 54 -36 54 -51 0 -5 9 -12
19 -16 11 -3 25 -13 33 -23 12 -16 11 -16 -7 -2 -20 14 -20 14 -1 -7 10 -13
23 -20 27 -17 5 3 9 1 9 -5 0 -5 27 -37 60 -71 33 -34 60 -66 60 -71 0 -5 4
-8 9 -6 10 2 111 -101 111 -114 0 -5 6 -9 13 -9 7 0 18 -9 25 -20 7 -11 20
-20 30 -20 12 0 14 -3 4 -8 -9 -6 -6 -12 12 -22 14 -7 23 -17 20 -22 -3 -4 2
-8 11 -8 9 0 13 -4 10 -10 -3 -5 1 -10 10 -10 9 0 14 -4 11 -8 -3 -5 4 -15 15
-23 35 -24 104 -94 101 -101 -1 -5 4 -8 11 -8 7 0 19 -9 27 -20 8 -11 20 -20
27 -20 7 0 13 -8 13 -17 0 -9 3 -14 6 -10 8 7 34 -17 34 -32 0 -6 6 -10 13 -8
6 1 11 -4 9 -11 -1 -8 2 -11 7 -8 5 4 17 -4 25 -16 9 -12 16 -19 16 -16 0 4
11 -4 25 -18 14 -14 25 -29 25 -34 0 -5 9 -12 20 -15 11 -3 20 -11 20 -16 0
-6 4 -7 10 -4 5 3 10 -1 10 -9 0 -8 9 -18 20 -21 11 -4 18 -9 16 -13 -2 -4 2
-13 10 -20 8 -7 14 -9 14 -5 0 4 11 -4 24 -19 12 -15 26 -25 30 -21 3 3 6 -1
6 -10 0 -9 7 -17 16 -17 8 0 12 -5 9 -10 -3 -6 0 -10 9 -10 8 0 24 -12 36 -27
12 -16 19 -21 15 -13 -4 8 5 3 19 -12 14 -16 28 -28 31 -28 3 0 13 -8 23 -18
41 -39 71 -60 76 -55 3 4 6 -1 6 -10 0 -9 5 -17 11 -17 16 0 69 -47 62 -54 -4
-3 0 -6 8 -6 8 0 34 -18 58 -39 25 -22 48 -38 52 -36 4 3 9 -5 12 -17 4 -12 9
-19 13 -15 4 4 19 -6 34 -21 15 -15 33 -28 41 -30 8 -2 21 -10 29 -19 11 -12
12 -14 1 -8 -9 5 -12 4 -7 -3 4 -7 15 -12 24 -12 10 0 24 -9 32 -19 7 -11 17
-18 22 -15 4 3 8 1 8 -5 0 -5 9 -12 19 -16 11 -3 23 -15 27 -27 5 -16 8 -18
15 -7 6 10 9 11 9 2 0 -7 7 -13 15 -13 8 0 20 -9 27 -20 7 -11 21 -20 30 -20
10 0 17 -3 15 -8 -1 -4 2 -8 6 -9 5 -1 17 -12 28 -24 10 -12 19 -18 19 -14 0
4 9 -2 19 -14 12 -14 25 -20 32 -15 8 4 9 3 5 -4 -7 -11 7 -17 29 -12 6 1 7
-1 3 -5 -8 -8 44 -55 61 -55 7 0 14 -7 17 -15 4 -8 10 -12 15 -9 5 3 9 0 9 -5
0 -6 7 -11 16 -11 8 0 12 -5 9 -10 -3 -6 1 -10 10 -10 10 0 13 -5 9 -12 -4 -6
-3 -8 4 -4 6 3 17 0 25 -8 8 -8 17 -12 21 -9 3 4 6 -1 6 -10 0 -10 7 -15 20
-12 11 2 23 -1 26 -7 5 -7 2 -8 -6 -3 -9 6 -11 4 -6 -4 5 -7 15 -10 23 -7 8 3
12 2 9 -3 -3 -5 2 -15 11 -22 14 -12 16 -12 9 1 -4 8 0 6 8 -4 9 -11 16 -16
16 -12 0 4 11 -4 23 -18 17 -18 27 -22 34 -15 8 8 13 5 18 -10 3 -12 13 -21
21 -21 8 0 14 -4 14 -10 0 -5 6 -9 13 -7 6 1 11 -4 10 -10 -2 -7 0 -12 5 -12
19 3 33 -2 27 -11 -3 -6 1 -7 9 -4 9 3 16 1 16 -4 0 -6 9 -14 20 -17 11 -4 18
-10 15 -15 -3 -4 3 -7 13 -6 9 0 16 -4 15 -11 -2 -8 4 -10 14 -6 11 4 14 3 9
-6 -4 -6 -4 -11 1 -10 20 3 34 -3 57 -26 14 -14 32 -25 41 -25 8 0 15 -4 15
-10 0 -5 6 -10 13 -10 7 0 20 -9 30 -20 10 -12 23 -18 29 -14 7 5 9 2 5 -8 -4
-12 -1 -14 14 -11 11 3 21 -1 25 -11 3 -9 13 -16 21 -16 8 0 11 -4 8 -10 -3
-6 1 -7 9 -4 9 3 16 1 16 -6 0 -6 5 -8 10 -5 6 3 10 1 10 -4 0 -6 5 -11 11
-11 6 0 17 -7 26 -15 8 -8 19 -13 24 -10 5 4 9 1 9 -5 0 -6 5 -8 10 -5 6 4 9
1 8 -7 -2 -7 3 -12 10 -11 6 2 12 -2 12 -8 0 -5 4 -8 9 -5 5 3 12 -1 15 -10 4
-9 13 -14 21 -10 8 3 14 0 12 -7 -1 -7 4 -11 11 -10 6 2 12 -2 12 -7 0 -6 9
-10 21 -10 11 0 17 -5 14 -10 -3 -6 1 -10 10 -10 9 0 13 -4 10 -10 -3 -6 1 -7
9 -4 9 3 16 1 16 -6 0 -6 4 -9 9 -6 5 3 11 -1 15 -9 3 -8 12 -12 21 -9 9 4 15
3 14 -2 -1 -5 -1 -16 0 -24 1 -11 3 -12 9 -2 6 9 13 7 30 -8 11 -11 26 -20 32
-20 5 0 10 -5 10 -11 0 -5 5 -7 10 -4 6 3 13 -1 16 -9 3 -9 10 -16 16 -16 5 0
6 6 3 13 -4 6 2 2 12 -11 10 -13 28 -24 40 -25 12 0 21 -6 20 -12 -1 -5 4 -9
10 -8 7 2 13 -2 13 -7 0 -5 6 -9 13 -7 6 1 11 -4 10 -10 -2 -8 8 -13 25 -13
18 0 37 -9 50 -25 13 -14 27 -23 32 -20 6 3 10 1 10 -5 0 -6 5 -8 10 -5 6 3
10 -2 11 -12 0 -10 3 -13 6 -6 3 10 8 9 20 -2 8 -8 18 -13 23 -10 5 3 12 0 16
-6 5 -8 3 -9 -7 -4 -12 8 -12 6 0 -8 16 -20 35 -23 26 -5 -4 7 2 3 12 -8 10
-12 28 -25 41 -29 12 -3 22 -11 22 -16 0 -5 3 -9 8 -8 15 2 52 -14 52 -22 0
-5 7 -9 15 -9 8 0 15 -5 15 -12 0 -6 3 -8 7 -5 3 4 17 0 31 -9 13 -9 21 -11
17 -4 -5 8 -1 8 13 -1 12 -7 18 -18 14 -24 -3 -5 2 -4 11 4 15 12 21 9 18 -11
0 -4 8 -5 19 -3 11 2 20 0 20 -6 0 -5 12 -9 26 -9 16 0 23 -4 18 -12 -4 -6 -3
-8 3 -5 5 3 26 -3 46 -13 24 -13 37 -16 37 -8 0 6 7 3 16 -8 8 -10 13 -13 9
-6 -3 6 -1 12 4 12 6 0 11 -4 11 -10 0 -5 9 -10 20 -10 11 0 20 -6 20 -12 0
-9 4 -8 10 2 6 10 10 11 10 3 0 -7 7 -13 15 -13 8 0 15 -4 15 -8 0 -5 6 -9 13
-10 18 -1 39 -7 72 -21 17 -7 36 -14 43 -15 7 -1 17 -7 24 -14 8 -8 17 -8 31
-1 14 8 18 8 13 0 -7 -10 -3 -13 27 -15 6 -1 15 -5 18 -9 3 -4 16 -9 27 -10
12 -1 22 -6 22 -12 0 -5 4 -4 9 3 7 11 9 11 14 -2 4 -9 13 -13 22 -10 8 3 15
1 15 -6 0 -6 5 -8 10 -5 6 4 23 0 40 -8 21 -11 30 -12 34 -3 2 6 5 3 5 -7 1
-10 6 -15 11 -12 6 4 18 1 27 -7 12 -9 15 -10 9 0 -6 10 -2 10 18 1 14 -7 23
-16 20 -20 -3 -5 0 -9 5 -9 6 0 11 5 11 11 0 8 4 9 13 0 8 -6 17 -8 20 -4 4 3
7 1 7 -7 0 -10 4 -10 17 1 14 12 16 12 8 0 -6 -11 -3 -13 13 -9 12 4 22 2 22
-3 0 -5 9 -9 20 -9 11 0 20 -4 20 -9 0 -6 9 -8 20 -6 11 2 20 0 20 -6 0 -5 5
-9 11 -9 5 0 7 6 3 13 -4 6 3 3 16 -8 13 -11 20 -14 16 -7 -4 6 -2 12 3 12 6
0 11 -5 11 -11 0 -5 4 -8 8 -5 5 3 21 -2 37 -10 16 -8 34 -13 41 -10 7 3 15
-2 18 -10 4 -11 10 -12 25 -4 16 8 22 6 30 -7 8 -14 10 -15 11 -3 0 13 1 13
10 0 5 -8 10 -12 10 -7 0 4 13 1 30 -8 27 -14 29 -14 24 2 -5 16 -4 16 8 2 7
-9 21 -15 31 -13 9 1 17 -2 17 -8 0 -6 7 -4 17 3 11 10 14 10 9 2 -7 -13 0
-16 37 -16 9 0 17 -4 17 -10 0 -5 8 -3 17 4 11 10 14 10 9 2 -5 -9 2 -13 24
-13 17 0 29 -3 27 -8 -3 -4 6 -8 19 -8 15 -1 21 2 17 10 -4 6 1 5 10 -2 9 -8
22 -10 28 -6 7 4 9 3 6 -3 -10 -16 18 -24 33 -10 10 9 11 9 5 -2 -6 -11 -2
-13 19 -9 14 3 26 2 26 -2 0 -12 36 -18 51 -9 8 4 19 3 26 -3 7 -6 13 -7 13
-3 0 4 8 1 17 -6 14 -12 15 -12 9 -1 -7 12 -4 12 15 1 13 -7 33 -14 44 -15 49
-6 100 -13 100 -14 0 -3 41 -9 73 -12 17 -1 32 -6 32 -11 0 -5 6 -5 13 2 9 7
17 7 24 0 6 -6 31 -11 57 -12 25 0 46 -4 46 -7 0 -3 10 -6 23 -7 77 -4 97 -7
97 -17 0 -6 5 -4 10 4 6 9 10 10 10 3 0 -7 9 -10 22 -8 12 3 27 0 34 -6 8 -7
14 -7 19 1 5 8 11 8 21 -1 7 -6 21 -9 29 -5 8 3 15 1 15 -4 0 -5 10 -7 22 -5
12 3 28 -1 37 -8 12 -9 13 -9 7 1 -4 6 -3 12 3 12 5 0 12 -4 15 -9 3 -4 17 -7
31 -6 14 2 25 -2 25 -8 0 -8 3 -7 9 2 6 9 10 10 16 2 5 -9 10 -9 21 0 8 6 14
7 14 2 0 -8 28 -14 70 -15 8 -1 21 -6 29 -12 11 -8 13 -8 7 2 -4 6 -3 12 3 12
5 0 12 -4 15 -8 3 -5 15 -8 28 -7 13 1 29 -3 37 -9 11 -8 13 -8 7 2 -4 7 -1
12 9 12 10 0 13 -5 9 -12 -5 -9 -2 -9 9 1 11 8 17 9 17 2 0 -7 8 -8 25 -1 15
6 26 6 30 -1 4 -5 11 -7 16 -4 5 4 9 1 9 -6 0 -8 4 -8 15 1 8 7 15 8 15 3 0
-5 7 -10 15 -10 8 0 15 5 15 11 0 7 3 7 8 0 10 -17 78 -24 93 -10 9 8 10 8 5
-2 -6 -9 2 -11 31 -8 21 3 40 0 44 -6 4 -7 13 -6 29 2 15 8 20 8 16 1 -4 -6 0
-11 8 -11 9 0 16 6 17 13 0 6 4 3 9 -8 5 -11 9 -15 9 -10 1 11 51 14 51 4 0
-4 7 -10 16 -13 15 -6 15 -4 3 10 -13 16 -12 16 6 7 11 -6 26 -8 34 -5 10 3
11 0 5 -9 -7 -12 -5 -12 9 0 14 11 17 11 17 0 0 -9 3 -10 8 -4 10 14 32 17 32
4 0 -8 6 -7 17 2 11 10 14 10 9 2 -9 -16 -1 -16 27 -1 20 10 21 10 8 -6 -8 -9
-11 -19 -7 -23 3 -3 6 -1 6 6 0 8 8 11 19 8 11 -3 30 5 47 20 15 13 34 21 42
18 10 -4 12 0 8 10 -3 9 -2 14 3 11 11 -7 91 34 91 47 0 5 7 6 16 3 8 -3 12
-2 9 4 -3 6 3 10 14 10 11 0 27 10 35 22 9 12 16 18 16 13 0 -5 7 0 15 11 8
10 15 16 15 12 0 -5 9 1 20 12 12 12 26 18 32 14 6 -4 9 -3 6 2 -3 5 0 15 8
22 8 7 14 9 14 5 0 -4 11 5 25 21 14 16 25 26 25 23 0 -4 9 1 19 11 41 36 56
47 64 44 5 -1 6 2 3 7 -3 5 7 17 22 26 15 10 46 38 70 63 23 24 42 42 42 39 0
-3 19 14 43 37 24 22 41 45 39 50 -3 5 2 7 11 3 11 -4 14 -2 10 9 -3 8 -2 14
3 12 9 -3 53 37 55 50 1 4 5 6 10 5 5 -2 9 3 9 11 0 8 9 18 20 21 11 4 18 11
14 16 -3 6 4 13 16 16 13 3 19 11 16 19 -3 8 1 14 9 14 7 0 17 5 21 12 5 7 3
8 -7 3 -12 -8 -12 -6 0 8 7 9 17 15 21 12 8 -5 36 63 32 77 -1 4 6 4 15 1 13
-5 15 -2 11 15 -4 12 -2 20 3 16 5 -3 9 0 9 6 0 6 5 8 10 5 6 -4 10 -3 9 2 -3
20 2 34 11 28 6 -3 7 1 4 9 -3 9 -1 16 6 16 6 0 8 5 5 10 -3 6 0 13 9 16 9 3
12 12 9 21 -4 11 -2 14 5 9 11 -6 14 -1 11 20 0 3 7 11 17 18 9 7 14 18 10 24
-4 7 -3 12 3 12 5 0 13 9 16 20 4 12 11 17 18 14 7 -4 9 -3 4 1 -4 5 1 17 10
28 10 11 12 17 6 13 -8 -4 -6 5 4 23 10 16 21 27 25 25 4 -3 5 1 2 9 -3 8 0
18 5 22 6 3 9 11 6 16 -4 5 -1 9 5 9 6 0 8 4 5 10 -3 5 0 10 7 10 9 0 9 3 -2
10 -8 5 -10 10 -5 10 6 0 12 12 13 26 1 15 8 34 15 42 10 13 9 14 -2 7 -11 -6
-12 -5 -5 6 5 8 10 25 10 39 1 14 3 25 4 25 3 0 10 63 11 88 0 11 5 15 12 10
8 -5 8 -2 -1 9 -10 13 -10 17 4 22 13 5 14 9 4 21 -10 12 -10 18 -1 29 8 10 9
16 1 21 -6 3 -7 11 -3 18 10 16 10 58 0 64 -4 2 -3 11 4 19 9 11 9 14 0 14 -8
0 -9 5 -1 19 7 14 6 21 -3 24 -9 4 -8 6 2 6 11 1 11 4 1 16 -10 12 -10 15 1
15 12 0 12 2 1 9 -8 4 -14 12 -14 16 0 4 6 12 14 16 9 6 9 9 1 9 -7 0 -11 14
-11 33 1 17 -3 41 -7 51 -6 14 -5 17 4 11 10 -6 11 -3 2 13 -6 12 -9 36 -6 56
4 19 1 37 -5 41 -6 3 -7 12 -3 18 10 17 13 37 4 37 -4 0 -7 34 -7 75 -1 48 -6
80 -15 92 -9 11 -10 14 -1 9 8 -5 11 -1 9 13 -2 11 -6 24 -10 27 -4 4 -2 13 4
21 9 10 8 13 -1 13 -10 0 -10 3 0 15 10 11 10 15 0 15 -6 0 -10 6 -7 13 2 6 0
20 -5 30 -6 11 -5 17 2 17 6 0 8 5 3 12 -4 7 -6 24 -4 37 1 13 -3 28 -11 32
-11 7 -11 9 1 9 10 0 11 3 2 14 -9 10 -9 16 -1 21 6 4 7 12 3 18 -5 7 -8 26
-8 42 0 17 -4 33 -10 37 -6 5 -5 8 3 8 10 0 10 5 2 20 -6 11 -8 20 -4 20 3 0
2 6 -5 13 -8 10 -7 17 1 25 9 9 9 12 0 12 -9 0 -10 5 -3 18 6 11 6 23 1 28 -5
5 -10 28 -11 52 -2 23 -5 42 -8 42 -4 0 -7 21 -8 47 -2 26 -8 50 -15 55 -10 6
-9 8 2 8 9 0 11 3 5 8 -11 8 -16 25 -19 59 0 13 -4 23 -8 23 -3 0 -4 10 0 22
3 13 1 19 -5 15 -6 -4 -9 4 -7 18 1 14 -2 25 -6 25 -5 0 -7 9 -5 20 2 11 0 22
-5 25 -5 3 -7 12 -3 20 3 8 -1 15 -8 15 -7 0 -9 3 -6 7 4 3 2 12 -4 20 -9 10
-8 13 1 13 10 0 10 3 0 15 -7 8 -9 15 -5 15 4 0 2 7 -5 15 -6 8 -9 19 -5 25 3
5 2 10 -4 10 -5 0 -8 11 -6 25 1 14 -2 28 -6 31 -5 3 -9 14 -9 25 0 11 -4 18
-8 15 -4 -2 -9 5 -9 17 -3 48 -8 67 -17 67 -5 0 -6 3 -3 7 4 3 1 13 -6 21 -10
13 -9 14 1 8 11 -7 12 -4 3 11 -6 11 -7 24 -3 28 4 5 0 6 -8 3 -12 -4 -15 3
-14 34 0 22 -5 42 -11 44 -6 3 -10 18 -9 34 1 19 -3 30 -11 30 -7 0 -16 7 -19
16 -3 8 -11 12 -16 9 -6 -4 -9 -1 -8 6 2 8 -8 14 -26 14 -16 0 -31 6 -34 13
-3 10 -7 10 -20 0 -10 -8 -13 -9 -9 -1 4 6 3 14 -3 18 -5 3 -10 1 -10 -6 0 -7
-6 -5 -14 6 -7 10 -27 19 -44 20 -18 1 -35 5 -39 10 -5 4 -1 5 7 0 10 -5 12
-5 5 3 -5 6 -19 12 -30 14 -11 1 -26 10 -33 18 -11 12 -12 12 -6 1 5 -10 -5
-7 -28 7 -19 12 -38 19 -41 15 -4 -3 -7 -1 -7 5 0 7 -7 12 -15 12 -8 0 -15 4
-15 10 0 5 -3 9 -7 8 -5 -1 -18 3 -31 10 -12 7 -27 10 -32 7 -6 -4 -7 1 -3 12
6 16 5 16 -10 4 -15 -12 -17 -11 -17 3 0 10 -4 14 -10 11 -6 -3 -10 -1 -10 5
0 6 -4 8 -10 5 -5 -3 -10 -1 -10 5 0 6 -4 8 -10 5 -5 -3 -10 -1 -10 5 0 6 -5
8 -10 5 -5 -3 -10 -1 -10 5 0 6 -4 8 -10 5 -5 -3 -10 -1 -10 4 0 6 -7 11 -16
11 -8 0 -12 5 -9 10 4 6 3 9 -2 8 -5 -2 -30 8 -56 21 -37 19 -46 28 -41 43 3
10 1 18 -5 18 -6 0 -11 10 -11 23 0 13 -6 29 -12 36 -11 11 -10 12 2 6 12 -6
13 -5 3 6 -7 7 -13 23 -13 36 0 13 -5 23 -11 23 -8 0 -8 5 1 15 9 11 9 15 1
15 -7 0 -10 4 -6 9 3 5 1 12 -4 16 -6 3 -7 13 -4 22 5 12 3 14 -8 8 -12 -8
-12 -6 0 8 7 9 9 17 4 17 -7 0 -13 22 -16 68 0 6 -5 12 -10 12 -6 0 -7 3 -4 7
4 3 1 13 -6 21 -10 13 -9 15 7 8 19 -7 19 -6 1 14 -10 11 -15 20 -10 20 4 0 1
8 -6 17 -12 15 -12 16 1 8 13 -7 12 -5 -1 11 -8 10 -14 31 -13 47 2 15 -2 27
-7 27 -6 0 -7 5 -4 10 4 6 1 18 -7 27 -9 12 -9 15 0 9 6 -4 12 -3 12 3 0 5 -5
13 -10 16 -6 4 -10 16 -8 28 2 12 -2 21 -8 20 -6 -1 -11 5 -11 13 0 8 5 14 10
14 5 0 4 7 -3 15 -7 9 -10 18 -8 21 3 3 0 24 -7 47 -7 23 -11 50 -9 60 1 9 -2
15 -6 12 -5 -3 -9 5 -9 17 0 13 -1 33 -1 46 0 12 -6 22 -13 22 -8 0 -7 4 3 10
8 5 10 10 5 10 -6 0 -12 14 -13 31 -1 17 -9 40 -16 51 -8 11 -12 26 -9 34 9
25 -52 84 -85 81 -14 -1 -27 4 -30 11 -2 8 -8 7 -20 -4 -9 -9 -17 -13 -19 -8
-2 5 -28 8 -59 7 -60 -2 -84 11 -84 45 0 10 -3 22 -7 26 -4 3 -8 16 -10 27 -2
14 1 18 9 13 8 -4 7 1 -2 12 -9 10 -15 31 -14 47 0 15 -2 27 -6 27 -4 0 -6 14
-5 30 1 17 -2 30 -9 30 -6 0 -4 5 4 10 8 5 10 10 4 10 -7 0 -9 11 -6 26 4 21
2 25 -9 19 -12 -8 -12 -6 0 8 7 9 9 17 4 17 -13 0 -11 43 2 52 6 5 6 8 -1 8
-7 0 -11 16 -10 41 1 22 -2 42 -6 45 -4 3 -3 14 2 25 6 10 7 19 3 19 -4 0 -1
5 7 10 8 5 10 10 4 10 -6 0 -11 7 -11 15 0 8 4 15 9 15 5 0 6 5 2 12 -5 8 -2
9 9 5 10 -4 17 -1 17 6 0 8 3 8 9 -2 5 -7 13 -11 19 -7 6 3 13 0 15 -6 4 -10
6 -10 6 0 1 9 6 10 19 4 9 -5 29 -8 45 -6 18 2 25 -1 21 -8 -5 -7 -1 -9 9 -5
10 3 17 2 17 -3 0 -5 9 -7 20 -5 11 2 20 0 20 -5 0 -4 7 -11 16 -14 8 -3 12
-2 9 4 -3 6 -1 10 4 10 6 0 11 -4 11 -9 0 -5 9 -7 20 -4 11 3 20 1 20 -4 0 -5
17 -11 38 -12 20 -1 43 -3 50 -3 6 -1 12 -4 12 -8 0 -3 10 -6 23 -6 51 -2 92
-9 99 -19 5 -6 8 -5 8 3 0 8 5 10 13 5 6 -4 30 -8 52 -8 22 0 46 -4 53 -8 6
-5 12 -4 12 1 0 5 7 9 15 9 8 0 15 -5 15 -11 0 -6 5 -4 10 4 6 9 13 11 18 5 4
-5 31 -10 60 -10 30 0 56 -3 59 -7 2 -5 13 -3 24 2 14 8 19 7 19 -2 0 -10 2
-10 9 1 6 9 10 10 16 2 5 -9 10 -9 21 0 11 9 14 9 14 -1 0 -10 3 -10 15 0 9 7
15 8 15 2 0 -12 33 -10 42 3 5 6 8 5 8 -3 0 -8 5 -10 12 -6 12 7 48 9 66 3 19
-6 38 -4 45 6 4 7 10 7 15 0 10 -14 52 -15 52 -1 0 6 4 5 9 -3 5 -8 14 -10 22
-5 18 11 59 12 59 1 0 -5 7 -4 15 3 11 9 15 9 15 1 0 -7 5 -9 11 -5 6 4 34 9
63 11 28 3 54 10 58 16 5 7 8 8 8 2 0 -6 11 -11 25 -11 14 0 25 3 25 7 0 5 9
6 20 4 11 -2 22 1 26 7 4 6 10 5 15 -3 7 -11 9 -11 9 -1 0 7 5 10 10 7 6 -4
18 -1 27 7 12 9 15 9 9 1 -8 -15 3 -17 24 -3 9 5 19 5 27 -2 10 -8 13 -7 13 3
0 11 2 11 10 -1 7 -11 10 -12 10 -2 0 9 7 11 20 7 12 -4 20 -2 20 6 0 8 4 8
16 -1 12 -11 15 -11 12 1 -2 9 4 13 15 11 9 -2 17 2 17 8 0 6 4 9 9 5 5 -3 12
-1 16 5 4 6 11 8 16 5 5 -4 9 -1 9 5 0 6 4 9 9 5 5 -3 16 1 24 9 8 8 17 12 21
9 3 -4 6 -1 6 6 0 7 5 9 10 6 6 -3 10 2 10 12 0 15 2 16 10 3 8 -13 10 -12 10
3 0 9 5 17 11 17 6 0 17 7 25 15 9 8 13 15 9 15 -3 0 18 23 47 51 29 28 52 55
51 60 -2 5 3 8 10 6 6 -1 11 6 11 16 -1 9 5 17 13 17 13 0 13 3 3 15 -10 12
-10 15 0 15 7 0 10 7 6 15 -3 8 -2 15 3 15 4 0 7 14 6 30 -1 17 3 30 9 30 6 0
5 4 -3 9 -10 6 -11 13 -2 29 14 26 14 35 0 26 -7 -4 -7 1 1 15 9 18 9 26 -2
39 -9 11 -10 14 0 8 12 -7 14 -1 15 42 0 12 5 22 10 22 7 0 7 4 0 11 -7 7 -8
18 -4 28 5 9 13 31 19 49 9 29 9 33 -5 28 -14 -6 -14 -4 -2 10 7 9 14 34 16
57 2 23 9 45 16 49 7 5 8 8 1 8 -6 0 -11 7 -11 15 0 8 4 12 8 10 11 -7 18 32
7 43 -6 6 -6 12 1 16 5 4 8 13 4 21 -3 9 -1 21 4 28 5 6 9 29 9 49 -1 21 2 38
6 38 4 0 5 9 3 20 -2 11 1 22 7 26 6 4 5 10 -3 15 -8 5 -9 9 -3 9 6 0 10 11 9
25 -2 14 2 25 8 25 7 0 5 5 -3 10 -11 7 -11 10 -2 10 7 0 11 4 8 8 -2 4 -1 14
4 22 5 9 4 20 -3 29 -9 12 -9 13 1 7 7 -4 12 -1 13 8 2 25 4 30 13 45 7 11 6
12 -5 6 -11 -7 -11 -5 1 9 8 10 15 24 15 30 1 23 28 96 36 96 4 0 6 9 4 20 -2
11 0 20 6 20 5 0 9 9 9 19 0 11 5 23 10 26 6 3 10 15 10 26 0 10 4 19 10 19 5
0 9 3 7 8 -1 4 19 28 45 53 26 26 44 50 40 54 -4 4 0 12 8 18 9 7 15 21 15 32
0 11 4 26 10 34 7 11 7 13 -2 7 -7 -4 -13 -3 -13 3 0 5 -3 18 -7 28 -6 16 -5
16 10 4 9 -7 17 -10 17 -7 0 4 7 0 16 -9 9 -9 23 -14 30 -11 9 3 11 0 7 -12
-6 -15 -5 -16 12 -2 11 9 16 10 11 3 -6 -12 4 -17 26 -14 4 0 10 -8 13 -19 6
-18 17 -24 38 -21 4 0 7 -4 7 -9 0 -12 37 -50 48 -50 5 0 15 -11 22 -25 7 -14
17 -25 22 -25 4 0 8 -7 8 -16 0 -8 4 -13 9 -10 5 3 15 -2 22 -11 12 -14 12
-16 -1 -8 -13 8 -13 6 -1 -8 7 -9 17 -14 22 -11 5 3 9 0 9 -6 0 -6 9 -20 20
-32 11 -12 20 -28 20 -35 0 -7 6 -12 13 -10 6 1 11 -6 11 -15 -1 -10 3 -16 9
-15 6 1 16 -8 22 -20 7 -13 15 -20 18 -16 4 3 7 1 7 -6 0 -6 10 -22 23 -35 48
-50 117 -138 117 -151 0 -4 7 -13 15 -22 8 -8 13 -19 9 -24 -3 -5 -2 -8 3 -7
4 2 9 -1 10 -5 1 -5 11 -17 22 -26 12 -10 21 -23 21 -30 0 -6 5 -11 10 -11 6
0 10 -6 10 -12 1 -7 14 -29 30 -48 17 -19 30 -40 30 -46 0 -7 9 -16 20 -19 11
-4 18 -11 15 -16 -3 -5 3 -18 14 -30 11 -12 18 -27 14 -32 -3 -6 -2 -8 3 -5 5
3 15 0 22 -8 7 -8 9 -14 5 -14 -4 0 7 -13 24 -29 18 -15 30 -31 26 -35 -3 -3
-1 -6 5 -6 10 0 28 -38 24 -52 -1 -5 3 -8 9 -8 5 0 7 -4 4 -10 -3 -5 -1 -10 4
-10 6 0 11 -9 11 -20 0 -11 7 -20 16 -20 8 0 13 -4 9 -9 -3 -5 2 -17 11 -25 8
-9 12 -16 8 -16 -4 0 3 -9 16 -20 15 -13 18 -20 9 -21 -8 0 -6 -4 6 -9 12 -5
14 -9 6 -9 -10 -1 -7 -7 7 -20 12 -10 18 -21 14 -25 -4 -4 1 -14 12 -21 10 -8
15 -18 11 -24 -3 -6 -1 -11 4 -11 6 0 11 -7 11 -15 0 -8 5 -15 11 -15 5 0 8
-4 5 -9 -3 -5 1 -14 9 -21 8 -7 15 -21 15 -31 0 -11 5 -19 11 -19 6 0 8 -7 5
-16 -3 -8 -2 -13 3 -10 11 7 32 -49 23 -60 -4 -4 -1 -4 6 0 8 5 12 0 12 -14 0
-12 5 -18 10 -15 9 5 15 -15 11 -37 0 -5 4 -8 10 -8 5 0 7 -4 4 -10 -3 -5 1
-10 9 -10 15 0 21 -17 17 -49 -2 -7 2 -10 8 -7 5 4 15 -10 22 -29 7 -19 17
-35 23 -35 5 0 6 -3 3 -6 -4 -4 3 -20 14 -35 11 -16 17 -33 14 -39 -3 -5 -1
-10 5 -10 6 0 17 -15 25 -34 8 -19 19 -38 25 -41 6 -4 8 -11 5 -16 -4 -5 -1
-9 4 -9 6 0 11 -7 11 -15 0 -8 5 -15 11 -15 5 0 8 -4 5 -9 -3 -5 1 -14 9 -21
8 -7 15 -20 15 -29 1 -16 24 -53 31 -48 2 1 3 0 2 -2 -2 -2 3 -11 10 -19 10
-13 9 -15 -3 -8 -8 4 -5 -1 8 -12 24 -22 30 -38 10 -26 -7 4 -3 -4 10 -18 12
-13 19 -27 16 -31 -4 -4 1 -9 10 -13 9 -3 13 -10 10 -15 -3 -5 -1 -9 5 -9 6 0
8 -7 5 -15 -4 -8 -1 -15 6 -15 6 0 8 -5 5 -10 -3 -6 1 -13 9 -16 9 -3 13 -11
9 -17 -3 -5 2 -16 12 -24 14 -10 15 -13 4 -14 -8 0 -6 -4 6 -9 11 -5 14 -9 7
-9 -10 -1 -10 -5 2 -17 9 -8 14 -20 11 -25 -4 -5 -1 -9 5 -9 6 0 8 -4 5 -10
-3 -5 -1 -10 5 -10 6 0 8 -5 5 -10 -3 -6 -1 -10 5 -10 6 0 8 -4 5 -10 -3 -5
-1 -10 5 -10 7 0 10 -7 6 -15 -3 -8 -1 -15 5 -15 6 0 8 -4 5 -9 -3 -5 1 -14 9
-21 8 -7 13 -16 10 -20 -2 -4 4 -23 15 -42 10 -20 16 -39 12 -42 -3 -4 -1 -11
6 -15 12 -7 22 -38 24 -69 1 -7 6 -11 12 -9 6 3 12 -9 13 -26 1 -17 6 -33 11
-36 5 -3 8 -14 7 -23 -2 -9 3 -19 11 -22 7 -3 11 -12 8 -20 -3 -8 0 -17 5 -21
6 -3 9 -11 6 -16 -4 -5 -1 -9 5 -9 6 0 8 -5 5 -10 -4 -6 -1 -17 5 -25 7 -8 9
-15 4 -15 -5 0 -4 -4 3 -8 6 -4 15 -21 18 -37 3 -17 7 -36 9 -43 1 -8 8 -17
15 -22 11 -6 11 -9 0 -13 -10 -4 -10 -6 -1 -6 6 -1 12 -10 12 -21 0 -11 5 -20
11 -20 5 0 7 -5 4 -10 -4 -6 -1 -18 7 -27 9 -12 9 -15 1 -9 -9 5 -11 2 -7 -8
3 -9 14 -16 23 -16 14 0 14 -2 1 -10 -13 -9 -13 -10 0 -10 12 0 13 -2 1 -9 -9
-6 -10 -10 -2 -12 6 -2 14 -17 17 -34 3 -16 10 -35 15 -41 7 -8 6 -14 -3 -17
-9 -4 -8 -6 3 -6 11 -1 16 -10 15 -28 0 -16 5 -27 11 -26 6 1 9 -6 6 -17 -3
-12 1 -22 10 -26 9 -3 14 -14 12 -25 -2 -11 2 -19 10 -19 8 0 12 -6 9 -14 -3
-8 -1 -17 5 -21 6 -3 11 -15 11 -26 0 -10 6 -19 13 -19 8 0 7 -4 -3 -10 -8 -5
-10 -10 -5 -10 6 0 15 -11 22 -25 8 -19 8 -24 0 -19 -7 3 -3 -2 7 -10 11 -9
16 -16 12 -16 -5 0 -4 -6 3 -13 8 -10 7 -17 -2 -27 -9 -10 -9 -11 1 -6 11 6
17 -5 13 -27 -1 -4 6 -10 14 -13 8 -4 15 -10 15 -16 0 -5 -6 -6 -12 -3 -7 4
-5 0 5 -8 9 -8 17 -19 17 -26 0 -6 4 -11 9 -11 5 0 13 -9 16 -20 4 -11 17 -32
31 -45 13 -13 24 -29 24 -35 0 -6 4 -9 9 -5 9 5 27 -32 23 -48 -1 -5 2 -5 8
-2 7 4 14 -2 17 -14 3 -11 9 -18 14 -15 5 3 9 -2 9 -11 0 -8 7 -18 15 -21 8
-4 13 -10 10 -14 -3 -5 4 -11 15 -15 11 -3 20 -12 20 -20 0 -7 13 -23 29 -36
16 -13 28 -26 27 -29 -2 -3 6 -14 17 -25 11 -11 16 -14 12 -6 -5 9 -4 12 3 7
7 -4 12 -14 12 -22 0 -8 4 -14 8 -14 15 0 52 -37 45 -44 -6 -5 13 -9 20 -3 1
1 17 -11 34 -28 78 -73 103 -92 87 -62 -3 6 5 0 20 -15 15 -16 33 -28 40 -28
7 0 23 -9 36 -20 12 -11 27 -17 31 -14 5 3 12 -2 15 -11 6 -13 8 -14 15 -3 7
10 9 8 9 -6 0 -11 3 -17 6 -13 4 3 19 0 35 -8 34 -18 42 -19 33 -2 -4 6 2 4
13 -6 11 -9 23 -14 26 -10 4 3 7 2 7 -4 0 -10 7 -12 55 -15 14 -1 25 -8 25
-16 0 -7 5 -10 10 -7 6 4 7 12 3 18 -3 7 2 5 13 -3 10 -9 34 -15 52 -15 17 0
32 -3 32 -8 0 -5 6 -7 14 -4 7 3 19 0 25 -6 8 -8 11 -8 11 0 0 6 9 9 20 6 11
-3 20 -8 20 -12 0 -4 23 -7 50 -6 28 1 56 -2 62 -6 7 -4 20 -3 30 2 10 5 18 6
18 1 0 -5 18 -7 41 -5 30 2 38 0 33 -9 -6 -10 -4 -10 8 0 17 14 39 13 50 -3 5
-6 8 -5 8 4 0 7 6 11 15 7 8 -3 15 -1 15 5 0 6 7 6 20 -1 11 -6 20 -7 20 -2 0
5 10 8 23 7 12 -1 26 3 30 9 6 8 10 8 13 -1 3 -7 12 -9 20 -6 7 3 11 9 8 14
-3 5 2 6 11 3 8 -4 23 0 32 7 14 12 16 12 8 -1 -6 -12 -5 -13 6 -3 7 7 21 13
31 13 10 0 18 4 18 10 0 5 7 7 15 4 10 -4 15 0 15 12 0 15 2 16 9 5 6 -9 11
-10 15 -2 4 6 12 9 17 6 5 -4 9 -1 9 5 0 6 5 8 10 5 6 -3 13 1 16 10 6 13 8
14 15 3 7 -10 9 -9 9 5 0 10 4 16 9 12 5 -3 17 2 25 11 9 8 16 12 16 7 0 -4 4
-3 8 2 12 17 82 67 82 58 0 -4 8 4 17 17 10 14 17 28 15 32 -1 5 4 7 11 5 6
-1 11 4 9 12 -2 9 3 11 13 7 9 -3 13 -2 10 4 -3 5 3 17 15 27 11 10 20 23 20
29 0 7 7 15 16 18 8 3 12 10 9 16 -6 9 8 14 28 11 5 -1 6 2 3 7 -3 5 8 24 24
43 16 19 29 38 30 42 0 4 10 18 23 30 12 12 23 29 25 37 2 8 8 17 13 18 5 2 9
10 9 18 0 8 4 14 9 14 8 0 24 37 22 53 -1 4 4 7 10 7 6 0 9 9 6 19 -3 14 -1
18 9 14 9 -3 12 2 9 16 -2 12 1 21 6 21 6 0 8 4 4 9 -3 5 -1 12 5 16 6 4 8 11
5 16 -4 5 -1 9 4 9 6 0 11 5 11 11 0 5 -6 7 -12 3 -7 -4 -4 3 7 16 12 14 14
20 5 15 -9 -5 -8 0 4 13 11 12 16 22 11 22 -4 0 -2 7 5 15 7 8 9 15 5 15 -5 0
0 10 11 21 14 16 15 23 7 26 -10 4 -9 8 2 19 8 8 11 22 8 31 -5 12 -3 14 7 8
9 -5 11 -4 6 4 -4 6 -2 19 6 28 9 12 9 15 1 9 -7 -4 -13 -2 -13 3 0 6 4 11 10
11 5 0 7 6 4 14 -3 8 0 17 6 21 8 5 8 10 0 20 -8 9 -8 15 0 20 5 3 10 19 10
34 0 15 6 33 12 39 10 10 10 15 -1 22 -12 7 -12 11 -2 24 11 12 11 16 1 16 -9
0 -10 3 -1 13 8 10 7 17 -1 25 -9 9 -9 12 1 12 11 0 11 3 1 15 -10 12 -10 15
1 15 12 0 12 2 0 9 -9 6 -10 10 -2 16 9 5 9 10 1 20 -8 10 -7 14 2 18 10 4 10
6 -1 6 -11 1 -11 4 -1 16 7 8 8 15 3 15 -5 0 -10 7 -10 15 0 8 5 15 10 15 5 0
4 7 -3 15 -10 12 -10 15 1 15 9 0 10 3 4 8 -5 4 -10 14 -10 22 0 8 5 18 10 22
6 5 5 8 -3 8 -9 0 -10 5 -3 18 7 13 6 23 -1 30 -9 9 -9 12 1 12 10 0 11 3 2
14 -9 11 -9 15 1 19 11 4 10 6 0 6 -8 1 -10 6 -6 13 13 21 14 61 1 77 -8 10
-8 13 -1 8 7 -4 14 0 18 8 3 8 1 17 -5 21 -6 4 -6 11 2 20 6 8 8 14 3 14 -4 0
-3 5 3 11 6 6 9 18 6 25 -3 8 -1 14 4 14 5 0 8 12 7 28 0 15 4 30 10 34 7 5 6
8 -3 8 -11 0 -11 3 0 17 12 15 12 16 -1 8 -12 -6 -13 -5 -2 6 15 16 16 33 1
23 -6 -3 -3 8 6 26 9 18 12 29 6 26 -10 -7 -7 57 5 75 3 5 -3 6 -13 3 -17 -5
-17 -5 0 9 11 9 14 18 8 21 -6 4 -8 13 -4 21 3 9 -1 15 -8 16 -8 0 -5 4 6 9
11 5 15 9 8 9 -7 1 -10 8 -6 18 4 9 2 14 -3 10 -5 -3 -10 3 -10 13 0 10 3 17
7 14 8 -5 4 50 -5 65 -4 6 -1 11 6 11 9 0 10 2 2 8 -7 4 -11 25 -10 47 1 22
-1 55 -5 73 -5 21 -3 32 5 32 7 0 6 4 -3 9 -9 6 -10 11 -2 15 8 5 8 13 1 26
-5 10 -7 26 -4 34 3 9 2 16 -3 16 -11 0 -10 61 2 79 5 9 4 12 -3 7 -7 -4 -10
3 -8 21 1 16 -2 34 -7 41 -6 8 -6 12 1 12 6 0 7 13 2 34 -4 19 -5 38 -2 41 4
3 0 10 -8 15 -9 6 -10 10 -3 10 14 0 13 40 -2 40 -5 0 -4 4 4 9 12 8 12 12 2
25 -10 11 -10 16 -2 16 8 0 9 6 2 18 -6 11 -6 24 0 34 6 11 4 21 -7 32 -8 9
-12 16 -7 16 4 0 4 4 -2 8 -5 4 -16 18 -23 31 -11 19 -11 22 0 16 7 -4 -7 11
-32 33 -36 34 -47 39 -59 29 -10 -8 -13 -8 -8 -1 4 7 0 14 -8 18 -8 3 -15 0
-15 -7 0 -7 -3 -8 -8 -2 -9 12 -42 12 -61 1 -9 -6 -12 -5 -8 1 4 6 0 14 -9 17
-8 3 -13 2 -10 -3 7 -12 -114 -8 -133 3 -10 7 -12 6 -6 -4 6 -10 1 -12 -19 -8
-15 3 -26 1 -26 -6 0 -6 -5 -4 -10 4 -8 12 -11 13 -19 1 -7 -11 -9 -11 -14 0
-3 8 -6 9 -6 3 -1 -14 -51 -6 -51 8 0 5 -4 7 -8 4 -11 -6 -43 30 -34 39 4 3
-1 3 -11 -1 -11 -4 -19 0 -23 10 -3 9 -12 16 -20 16 -8 0 -14 4 -14 9 0 5 -9
13 -20 16 -11 3 -20 10 -20 15 0 13 -48 59 -54 52 -3 -3 -6 0 -6 7 0 7 -13 25
-30 41 -16 15 -26 30 -23 34 3 3 1 6 -6 6 -7 0 -9 5 -6 10 3 6 2 10 -4 10 -10
0 -27 38 -23 53 1 4 -2 7 -7 7 -5 0 -7 10 -3 22 4 16 2 19 -8 13 -10 -6 -12
-4 -7 8 3 10 3 17 -2 17 -4 0 -6 12 -3 26 4 20 2 25 -8 19 -10 -6 -11 -4 -4 6
13 21 14 39 1 39 -7 0 -6 5 3 10 13 9 13 11 0 20 -13 9 -13 10 0 10 11 0 12 2
3 8 -12 8 -44 74 -49 102 -2 8 -8 16 -13 18 -6 2 -11 10 -11 18 0 13 -11 18
-26 12 -3 -2 -10 5 -15 15 -6 9 -17 17 -25 17 -8 0 -12 5 -9 10 3 6 -1 10 -9
10 -9 0 -16 5 -16 11 0 5 -4 7 -10 4 -5 -3 -10 1 -10 9 0 9 -6 16 -12 16 -7 1
-26 19 -43 40 -16 21 -35 39 -42 40 -7 0 -10 7 -6 18 3 9 3 14 -2 10 -9 -8
-35 15 -35 31 0 6 -4 11 -10 11 -5 0 -7 7 -4 15 4 9 0 15 -9 15 -10 0 -15 7
-12 19 2 11 -3 22 -12 25 -12 5 -13 9 -3 21 7 8 8 15 3 15 -9 0 -13 13 -14 53
0 9 -4 15 -8 13 -10 -6 -8 25 3 42 4 7 2 12 -5 12 -8 0 -8 4 -1 13 6 7 8 18 4
24 -9 15 -8 55 1 70 4 7 3 14 -3 18 -7 4 -7 12 0 24 5 10 6 21 3 25 -3 3 -2 6
4 6 6 0 9 12 7 27 -1 15 2 33 8 40 8 10 7 13 -3 13 -12 0 -12 2 0 9 8 5 11 16
8 25 -4 9 -2 16 4 16 6 0 8 4 4 9 -3 5 -1 12 5 16 6 4 8 11 5 16 -4 5 0 9 7 9
11 0 10 2 0 9 -11 7 -11 9 1 14 12 5 23 36 29 85 1 6 6 12 11 12 5 0 6 8 3 17
-4 10 -4 14 0 10 8 -7 50 71 46 86 -1 4 3 7 8 7 6 0 10 7 10 15 0 9 7 18 15
21 8 4 13 10 10 14 -3 5 2 15 11 24 8 9 13 20 9 25 -3 5 4 12 15 16 11 3 19 9
19 13 -2 16 14 51 21 47 7 -4 20 17 19 31 0 3 8 12 18 20 10 7 15 14 10 14 -7
0 -2 6 51 65 14 15 18 25 10 25 -7 1 -4 6 8 13 12 7 19 18 17 25 -3 6 0 12 6
12 6 0 11 7 11 15 0 8 7 15 15 15 8 0 14 3 13 8 -3 14 15 47 39 71 13 13 22
29 22 35 -1 6 1 19 6 29 4 9 5 26 2 37 -3 10 0 21 7 24 8 3 8 5 -1 5 -8 1 -9
10 -3 30 6 21 5 31 -3 35 -7 2 -7 5 -2 5 12 1 12 112 0 131 -5 9 -4 11 3 6 16
-9 15 7 0 22 -7 7 -8 12 -2 12 8 0 9 24 2 88 -1 6 -4 12 -8 12 -3 0 -6 10 -7
22 -1 11 -6 24 -10 27 -4 3 -10 15 -11 26 -2 11 -8 22 -13 23 -5 2 -7 8 -3 13
3 5 0 9 -6 9 -6 0 -8 5 -5 10 3 6 1 10 -4 10 -6 0 -11 6 -11 13 0 6 -11 26
-25 42 -60 70 -71 84 -84 103 -8 12 -18 19 -23 16 -4 -3 -8 2 -8 11 0 9 -4 13
-10 10 -5 -3 -10 1 -10 9 0 9 -6 16 -13 16 -8 0 -25 12 -40 27 -36 39 -54 53
-67 53 -6 0 -8 5 -5 10 3 6 -1 10 -10 10 -10 0 -13 5 -9 12 4 6 3 8 -3 5 -6
-4 -28 9 -49 28 -21 19 -43 35 -47 35 -5 0 -6 4 -3 9 3 4 -6 13 -20 20 -16 7
-22 16 -18 24 4 6 4 9 0 5 -8 -7 -96 79 -96 94 0 5 -5 6 -10 3 -6 -3 -10 -1
-10 4 0 23 -2 26 -20 36 -18 10 -20 13 -20 36 0 5 -5 7 -12 3 -8 -5 -9 -2 -5
9 4 11 1 17 -9 17 -8 0 -12 5 -9 10 3 6 2 10 -3 10 -6 0 -15 14 -21 30 -5 16
-14 30 -20 30 -5 0 -8 9 -6 20 2 11 0 18 -6 15 -8 -6 -13 8 -10 28 0 4 -4 7
-9 7 -6 0 -10 6 -10 14 0 8 -6 17 -12 19 -10 4 -9 6 1 6 9 1 6 8 -9 21 -15 13
-18 20 -9 20 12 0 12 2 1 9 -8 5 -15 20 -15 35 -1 14 -6 26 -10 26 -5 0 -5 5
-2 10 3 6 0 10 -7 10 -9 0 -9 3 2 10 11 7 11 10 2 10 -7 0 -11 4 -7 9 3 5 1
13 -5 16 -8 5 -8 11 0 20 8 9 7 17 -2 26 -16 17 -20 49 -6 49 7 0 7 5 0 13 -6
7 -7 18 -2 27 4 7 4 23 0 35 -5 14 -4 27 3 34 6 6 8 11 4 11 -4 0 -3 10 4 21
9 17 8 20 -3 13 -10 -6 -11 -5 -1 8 7 8 10 18 6 21 -3 4 0 7 8 7 11 0 11 2 -1
10 -10 6 -11 10 -2 10 6 0 12 9 12 20 0 11 4 20 10 20 5 0 9 3 9 8 -3 20 2 32
12 26 8 -4 9 0 4 15 -4 14 -1 23 9 27 9 3 16 12 16 20 0 8 5 14 11 14 6 0 8 7
5 16 -3 8 -2 13 2 11 4 -3 17 11 29 30 13 19 17 31 10 28 -6 -4 -4 0 7 9 19
16 52 71 36 61 -6 -3 -7 1 -4 9 3 9 10 13 15 10 5 -3 9 0 9 7 0 7 8 21 18 32
12 15 13 18 2 12 -8 -4 -4 3 9 18 12 14 20 30 16 36 -3 6 1 11 10 11 9 0 13 5
10 10 -3 6 -1 10 5 10 6 0 8 5 5 10 -3 6 1 10 10 10 9 0 13 4 10 10 -3 5 8 23
25 40 17 16 27 30 23 30 -4 0 0 5 10 11 9 6 15 14 12 19 -3 4 2 10 10 14 8 3
15 11 15 18 0 7 9 19 20 26 11 7 20 19 20 28 0 11 5 14 17 10 10 -4 14 -4 11
0 -11 10 12 45 24 38 7 -4 8 -3 4 4 -4 7 -2 12 5 12 7 0 10 3 6 6 -6 6 11 29
53 72 14 15 24 32 22 39 -1 7 6 18 18 25 11 7 20 20 20 30 0 9 9 19 20 23 11
3 19 9 19 13 -5 29 2 44 18 38 10 -4 14 -4 11 0 -4 4 1 18 12 32 11 13 17 28
14 33 -3 5 2 9 11 9 9 0 13 5 10 10 -3 6 1 13 9 16 9 3 14 10 11 14 -3 4 2 10
10 14 8 3 15 12 15 20 0 8 8 22 18 32 9 10 17 22 17 28 1 6 6 10 13 9 6 -2 9
4 6 12 -4 8 -1 15 5 15 6 0 10 6 9 13 -2 6 2 11 9 10 7 -2 10 4 7 12 -3 8 0
21 8 29 35 40 37 43 25 55 -10 10 1 16 26 12 4 -1 3 7 -2 18 -8 14 -7 22 4 31
8 7 12 17 8 23 -3 5 -1 7 5 3 6 -3 13 -2 17 4 3 5 1 10 -6 10 -7 0 -4 7 7 16
10 8 13 12 5 8 -10 -5 -12 -3 -5 7 4 8 9 20 11 28 1 8 8 18 15 22 10 7 10 9
-2 9 -12 0 -13 2 -1 9 7 5 15 22 18 37 7 48 9 58 17 77 5 9 6 24 2 32 -3 8 -1
15 4 15 5 0 7 6 4 13 -3 8 0 33 5 58 7 30 7 46 -1 50 -6 4 -7 12 -2 20 5 8 9
28 9 46 1 17 7 39 14 47 11 12 11 16 1 16 -10 0 -10 3 0 15 10 12 10 15 -1 15
-10 0 -10 3 -1 12 9 9 7 15 -6 25 -11 9 -12 12 -2 7 8 -4 11 -3 7 1 -14 15
-39 15 -33 -1 3 -8 0 -14 -7 -14 -8 0 -6 -4 3 -10 12 -8 12 -10 1 -10 -8 0
-11 -3 -8 -7 4 -3 2 -12 -4 -20 -6 -7 -9 -13 -5 -13 3 0 -3 -16 -14 -36 -11
-19 -15 -32 -8 -28 10 6 10 4 0 -9 -8 -9 -10 -22 -6 -28 5 -8 3 -9 -6 -4 -10
6 -12 4 -7 -8 3 -9 2 -19 -4 -23 -6 -3 -8 -12 -5 -20 3 -8 1 -14 -4 -14 -5 0
-7 -9 -5 -21 3 -15 0 -19 -10 -15 -9 3 -12 0 -8 -10 3 -8 0 -21 -7 -29 -6 -8
-9 -18 -6 -23 3 -5 -1 -20 -9 -35 -7 -14 -11 -28 -8 -31 3 -3 -1 -8 -10 -12
-9 -3 -14 -11 -11 -19 3 -7 -1 -19 -9 -26 -8 -8 -13 -22 -11 -32 1 -9 -4 -23
-11 -31 -7 -7 -15 -22 -17 -32 -2 -10 -10 -26 -19 -34 -9 -8 -14 -20 -12 -25
2 -6 -6 -21 -17 -33 -11 -11 -20 -26 -20 -31 0 -5 -7 -17 -16 -25 -8 -9 -16
-25 -17 -35 0 -11 -4 -18 -7 -16 -6 4 -37 -28 -31 -33 1 -2 -6 -15 -18 -28
-12 -13 -21 -26 -21 -29 0 -6 -42 -67 -67 -95 -56 -64 -63 -74 -63 -89 0 -14
-2 -14 -10 -1 -7 10 -10 11 -10 2 0 -6 -11 -22 -25 -34 -14 -12 -25 -28 -25
-36 0 -9 -3 -13 -6 -9 -3 3 -46 -34 -95 -83 -49 -48 -89 -85 -89 -82 -1 4 -7
-4 -15 -18 -8 -14 -14 -21 -15 -17 0 5 -6 2 -13 -5 -8 -7 -33 -29 -56 -48 -24
-19 -49 -41 -56 -47 -8 -7 -16 -13 -20 -13 -3 0 -19 -14 -35 -30 -17 -18 -35
-28 -42 -24 -7 4 -8 3 -4 -4 7 -11 -26 -35 -38 -27 -3 3 -4 2 -2 -1 5 -7 -47
-54 -59 -54 -4 0 -19 -12 -33 -27 -14 -16 -27 -27 -29 -25 -10 7 -23 0 -17
-10 5 -8 2 -9 -9 -5 -10 3 -17 2 -17 -3 0 -12 -40 -54 -40 -42 0 4 -6 -4 -14
-18 -9 -18 -10 -29 -2 -39 8 -11 8 -13 -1 -7 -12 6 -15 -3 -12 -30 0 -3 -8
-12 -18 -21 -10 -8 -13 -12 -7 -9 7 3 15 -1 18 -10 3 -8 2 -12 -4 -9 -11 7
-11 5 -14 -35 0 -14 -5 -30 -9 -37 -4 -6 -1 -14 5 -17 10 -5 10 -7 0 -12 -10
-5 -10 -9 0 -22 7 -9 8 -13 2 -9 -14 8 -17 -53 -3 -69 7 -8 6 -14 -1 -19 -14
-9 -13 -27 3 -20 6 4 3 -1 -7 -9 -11 -9 -15 -16 -9 -16 7 0 10 -10 7 -25 -3
-16 0 -25 8 -25 8 0 9 -3 3 -8 -16 -11 -17 -34 -3 -43 10 -7 10 -9 -1 -9 -10
0 -11 -3 -2 -14 9 -11 9 -15 -1 -18 -10 -4 -10 -8 -1 -20 10 -11 10 -17 0 -28
-10 -10 -9 -11 2 -5 11 6 13 4 8 -8 -3 -9 -2 -19 4 -23 6 -4 6 -11 -2 -20 -8
-10 -8 -14 -1 -14 7 0 9 -7 5 -17 -4 -11 -3 -14 5 -9 8 4 10 -3 7 -24 -2 -16
0 -32 5 -35 5 -3 7 -12 3 -20 -3 -9 1 -15 8 -15 11 0 11 -3 -1 -10 -10 -6 -11
-10 -2 -10 7 0 12 -13 12 -30 0 -16 5 -30 11 -30 6 0 8 -9 4 -20 -4 -12 -2
-20 5 -20 7 0 10 -6 7 -14 -3 -8 -1 -17 6 -20 9 -3 9 -5 0 -5 -8 -1 -6 -8 6
-20 11 -11 18 -28 17 -38 -2 -10 3 -23 11 -28 8 -6 15 -20 15 -31 3 -36 35
-52 68 -34 15 8 20 8 20 -1 0 -8 4 -8 15 1 11 9 15 9 15 1 0 -7 4 -10 9 -6 5
3 12 1 16 -5 4 -6 11 -8 16 -5 5 3 6 -2 2 -11 -4 -12 -3 -15 5 -10 7 4 15 1
18 -8 3 -9 10 -13 15 -10 5 3 6 -2 3 -10 -3 -9 -1 -16 5 -16 6 0 8 -7 5 -15
-4 -8 -1 -15 7 -15 7 0 10 -3 6 -6 -3 -4 1 -13 9 -21 8 -8 11 -19 8 -25 -4 -6
-3 -8 3 -5 11 7 45 -28 36 -37 -6 -6 12 -10 29 -7 4 0 4 -7 1 -16 -4 -10 -2
-14 5 -9 6 3 13 -3 17 -15 4 -11 9 -18 12 -15 7 7 113 -100 113 -114 0 -6 5
-8 10 -5 5 3 10 1 10 -4 0 -21 3 -26 26 -47 12 -12 20 -25 17 -28 -4 -3 0 -6
8 -6 11 0 11 -2 -1 -10 -8 -5 -10 -10 -4 -10 7 0 15 -11 18 -25 4 -16 11 -23
18 -19 7 4 8 3 4 -4 -4 -6 -2 -20 3 -30 7 -13 7 -22 -1 -30 -9 -9 -9 -12 0
-12 8 0 12 -13 10 -35 -1 -19 1 -37 5 -41 3 -4 2 -15 -3 -25 -7 -12 -6 -22 4
-31 11 -11 11 -16 0 -26 -10 -9 -11 -19 -4 -38 6 -15 6 -23 1 -19 -6 3 -10 -3
-11 -12 -3 -70 -5 -81 -12 -77 -7 5 -12 -10 -9 -28 0 -5 -4 -8 -9 -8 -6 0 -10
-5 -10 -11 0 -5 5 -7 12 -3 7 4 8 3 4 -5 -4 -6 -11 -9 -16 -6 -5 3 -11 1 -15
-5 -3 -5 -1 -10 5 -10 7 0 5 -7 -4 -16 -9 -8 -16 -21 -16 -29 0 -7 -7 -15 -15
-19 -8 -3 -14 -9 -14 -13 1 -4 -1 -16 -6 -26 -6 -15 -10 -16 -16 -5 -6 9 -9 7
-9 -8 0 -11 -15 -33 -34 -49 -19 -16 -33 -33 -30 -37 3 -4 -2 -11 -10 -14 -9
-3 -13 -10 -10 -15 3 -5 0 -9 -5 -9 -6 0 -11 -7 -11 -15 0 -9 -7 -18 -15 -21
-8 -4 -15 -10 -15 -16 0 -5 6 -6 13 -3 6 4 1 -3 -12 -14 -13 -12 -19 -21 -15
-21 5 0 1 -5 -8 -10 -10 -6 -15 -19 -13 -30 2 -13 -2 -20 -11 -20 -8 0 -12 -5
-9 -10 4 -6 1 -17 -5 -25 -6 -8 -9 -19 -5 -25 4 -6 1 -9 -7 -8 -7 2 -12 -3
-11 -9 2 -7 -2 -13 -8 -13 -6 0 -8 -7 -5 -16 3 -8 2 -12 -4 -9 -6 3 -10 -3
-10 -14 0 -11 -5 -23 -10 -26 -6 -4 -8 -10 -5 -15 3 -4 -2 -10 -10 -14 -8 -3
-15 -12 -15 -21 0 -8 -5 -15 -11 -15 -5 0 -7 -4 -4 -10 3 -6 -1 -10 -9 -10 -9
0 -16 -5 -16 -11 0 -5 -4 -7 -10 -4 -6 3 -10 -4 -10 -16 0 -12 -3 -19 -7 -16
-3 4 -19 -9 -36 -28 -16 -19 -34 -32 -40 -28 -5 3 -7 2 -4 -4 4 -5 -9 -24 -28
-41 -19 -16 -35 -35 -35 -41 0 -6 -7 -7 -17 -4 -11 4 -14 3 -9 -5 4 -7 2 -12
-4 -12 -6 0 -8 -4 -5 -10 3 -5 -1 -10 -10 -10 -9 0 -14 -4 -11 -9 3 -5 -4 -11
-15 -14 -11 -3 -23 -15 -26 -26 -3 -11 -10 -18 -15 -15 -5 3 -8 -2 -6 -12 2
-13 -2 -18 -15 -16 -10 2 -16 -3 -15 -10 2 -7 -3 -12 -9 -11 -7 2 -12 0 -12
-5 3 -19 -2 -33 -10 -28 -5 3 -12 -1 -15 -10 -3 -8 -10 -12 -16 -9 -6 3 -7 -1
-4 -9 4 -9 -1 -18 -10 -22 -9 -3 -16 -13 -16 -21 0 -8 -4 -12 -9 -8 -9 5 -27
-32 -23 -47 1 -5 -4 -8 -12 -8 -8 0 -18 -9 -21 -20 -3 -11 -11 -20 -16 -20 -6
0 -7 -5 -4 -10 3 -6 -1 -13 -9 -16 -9 -3 -16 -15 -16 -26 0 -10 -4 -16 -10
-13 -6 3 -7 -1 -4 -9 3 -9 1 -16 -5 -16 -6 0 -11 -3 -10 -7 2 -17 -14 -53 -24
-53 -6 0 -8 -3 -4 -6 3 -4 -1 -20 -9 -36 -9 -16 -13 -36 -10 -44 3 -9 -1 -14
-12 -15 -11 0 -12 -2 -4 -6 10 -4 10 -8 0 -21 -11 -13 -11 -14 2 -7 13 7 13 6
2 -7 -9 -11 -10 -18 -2 -23 6 -3 7 -12 3 -18 -13 -20 -12 -161 1 -169 7 -5 7
-8 1 -8 -6 0 -11 -9 -12 -20 -1 -13 2 -18 10 -13 7 4 6 0 -2 -10 -10 -13 -10
-17 -1 -17 9 0 9 -4 -1 -17 -10 -11 -10 -14 -1 -9 7 4 12 2 13 -6 4 -44 6 -64
8 -68 4 -8 12 -44 13 -57 1 -7 5 -13 10 -13 4 0 8 -9 8 -20 0 -11 5 -20 11
-20 5 0 8 -4 5 -9 -3 -5 1 -14 9 -21 8 -7 15 -19 15 -26 0 -8 4 -14 10 -14 5
0 7 -6 4 -14 -3 -7 2 -16 10 -19 9 -4 16 -14 16 -22 0 -10 5 -13 12 -9 6 4 8
3 5 -3 -8 -13 27 -55 37 -45 4 4 7 3 6 -3 -5 -21 0 -36 10 -30 6 3 13 -1 16
-9 3 -9 12 -16 20 -16 8 0 14 -6 14 -14 0 -7 12 -22 28 -32 15 -9 34 -26 43
-35 9 -10 19 -16 23 -12 3 3 6 1 6 -6 0 -7 5 -9 10 -6 5 3 10 -2 10 -11 0 -10
3 -15 6 -11 3 3 17 -5 31 -19 13 -13 29 -22 34 -19 5 4 9 -1 9 -10 0 -9 4 -13
10 -10 5 3 10 1 10 -6 0 -7 3 -9 7 -6 3 4 15 0 25 -10 10 -9 18 -12 18 -7 0 5
4 4 8 -3 4 -6 14 -13 22 -15 8 -2 19 -9 25 -15 5 -7 22 -14 37 -15 15 -1 24
-6 22 -10 -3 -4 -12 -4 -22 -1 -15 6 -16 5 -2 -12 14 -17 14 -18 -6 -7 -21 11
-54 10 -76 -4 -7 -4 -8 -3 -4 4 9 16 -7 15 -22 0 -9 -9 -12 -9 -12 1 0 11 -3
11 -16 0 -13 -10 -17 -10 -25 2 -5 8 -9 9 -9 2 0 -6 -11 -10 -25 -8 -14 1 -25
-1 -25 -4 0 -12 -74 -5 -78 7 -2 7 -7 10 -12 7 -5 -3 -19 -1 -32 3 -12 5 -34
6 -48 2 -14 -4 -31 -2 -39 4 -11 8 -13 8 -7 -2 6 -9 1 -11 -18 -8 -14 2 -27
-1 -30 -7 -3 -8 -7 -9 -13 -2 -12 15 -36 18 -27 4 5 -9 1 -10 -14 -7 -12 4
-22 2 -22 -4 0 -6 -7 -8 -15 -4 -8 3 -15 0 -15 -7 0 -7 -9 -20 -20 -30 -12
-10 -18 -22 -15 -27 4 -6 -1 -7 -11 -3 -11 4 -15 3 -10 -5 3 -6 2 -13 -4 -17
-6 -4 -8 -10 -5 -15 3 -5 1 -11 -5 -15 -6 -4 -7 -11 -4 -17 4 -6 -1 -17 -11
-25 -14 -9 -15 -13 -4 -13 12 0 12 -2 -1 -10 -8 -5 -11 -10 -6 -10 5 0 3 -6
-3 -14 -9 -11 -9 -16 0 -21 8 -6 7 -10 -2 -16 -10 -6 -10 -9 -2 -9 6 0 10 -9
8 -20 -3 -14 2 -20 13 -20 15 0 15 -2 2 -10 -8 -5 -10 -10 -5 -10 6 0 10 -12
10 -27 -1 -16 3 -36 8 -47 6 -13 6 -16 -2 -12 -14 9 -14 0 0 -26 8 -15 8 -19
0 -14 -6 4 -11 3 -11 -3 0 -5 5 -13 11 -17 8 -5 8 -9 -1 -14 -9 -6 -9 -13 -1
-28 9 -17 8 -23 -6 -31 -10 -6 -13 -11 -6 -11 7 0 10 -7 7 -15 -5 -11 -10 -13
-19 -5 -6 5 -15 7 -18 3 -4 -3 -7 -1 -7 6 0 6 -11 16 -25 21 -14 5 -25 15 -25
21 0 7 -3 10 -6 6 -9 -8 -114 102 -114 119 0 8 -4 14 -10 14 -5 0 -10 9 -10
20 0 11 -7 20 -15 20 -8 0 -14 3 -14 8 3 15 -23 72 -34 72 -6 0 -8 3 -4 6 3 3
-2 15 -11 26 -9 11 -27 32 -40 46 -12 15 -25 35 -28 45 -3 9 -12 17 -20 17 -8
0 -14 5 -14 11 0 5 6 7 13 4 6 -4 4 0 -5 8 -10 8 -14 18 -10 22 4 5 -1 5 -10
2 -10 -3 -17 -3 -17 1 2 17 -14 51 -22 46 -8 -5 -13 9 -10 29 0 4 -3 7 -8 7
-4 0 -19 20 -32 45 -13 25 -27 45 -30 45 -4 0 -12 14 -19 30 -7 17 -17 30 -22
30 -5 0 -6 5 -3 10 3 6 1 10 -5 10 -6 0 -8 5 -5 10 3 6 2 10 -3 10 -11 0 -58
91 -54 105 2 5 0 7 -4 2 -9 -9 -45 64 -37 77 4 5 1 6 -5 2 -11 -6 -16 6 -13
27 0 4 -4 7 -9 7 -6 0 -10 9 -10 20 0 11 -4 20 -10 20 -5 0 -10 9 -10 20 0 11
-4 20 -10 20 -5 0 -10 9 -10 21 0 11 -4 17 -10 14 -5 -3 -10 2 -10 13 0 10 -9
28 -20 40 -12 12 -17 22 -13 22 4 0 -1 6 -12 13 -10 8 -15 19 -11 25 4 7 1 12
-7 12 -13 0 -31 33 -28 53 1 4 -6 7 -15 7 -8 0 -12 5 -9 10 3 6 1 10 -6 10 -7
0 -9 3 -6 6 4 4 -3 15 -15 25 -11 11 -17 19 -12 19 5 0 1 5 -8 11 -10 5 -18
19 -18 29 0 11 -9 24 -20 30 -11 6 -20 17 -20 25 0 8 -5 15 -11 15 -5 0 -7 5
-4 10 3 6 -2 10 -11 10 -10 0 -15 3 -11 6 3 4 1 12 -6 19 -7 8 -21 25 -32 40
-11 15 -30 37 -41 50 -12 13 -19 26 -16 29 3 3 0 6 -6 6 -7 0 -12 7 -12 15 0
8 -6 15 -14 15 -8 0 -20 14 -28 30 -7 17 -21 33 -30 36 -10 3 -18 10 -18 16 0
6 -13 24 -30 40 -16 15 -30 33 -30 39 0 5 -4 7 -10 4 -6 -3 -10 1 -10 10 0 9
-4 14 -9 10 -5 -3 -12 4 -16 15 -3 11 -11 20 -16 20 -6 0 -7 5 -4 10 4 6 3 10
-2 9 -19 -3 -34 2 -28 10 3 5 -4 12 -15 16 -11 4 -18 10 -15 15 3 4 -8 16 -23
26 -15 9 -42 33 -59 53 -18 19 -33 31 -33 25 -1 -5 -7 2 -15 16 -7 14 -16 24
-19 23 -10 -5 -55 40 -50 49 3 5 2 7 -3 6 -4 -2 -9 0 -11 4 -6 17 -55 63 -64
60 -5 -1 -7 2 -4 7 4 5 -8 21 -26 36 -18 15 -27 24 -19 19 9 -5 12 -3 7 4 -4
7 -14 12 -22 12 -8 0 -14 7 -14 17 0 9 -3 14 -6 10 -4 -3 -23 11 -44 33 -21
22 -40 36 -44 33 -6 -6 -10 12 -7 30 1 5 -2 6 -6 4 -14 -9 -85 61 -77 74 5 8
3 9 -5 4 -8 -4 -18 1 -27 14 -8 12 -22 21 -30 21 -8 0 -13 5 -12 12 2 6 -7 17
-19 23 -13 7 -20 15 -16 18 3 4 -2 7 -13 7 -16 0 -17 2 -4 10 13 8 12 10 -2
10 -10 0 -18 5 -18 11 0 5 5 7 10 4 6 -3 10 1 10 10 0 9 4 14 9 11 5 -3 12 1
15 10 3 8 11 12 16 9 6 -4 9 -1 8 7 -2 7 5 12 14 12 10 -1 15 2 12 7 -3 5 10
24 28 42 18 19 34 40 36 48 2 7 8 17 14 20 6 4 5 9 -3 12 -11 4 -11 6 -1 6 7
1 10 6 7 11 -3 6 -1 10 6 10 8 0 7 5 -2 17 -8 10 -9 14 -2 10 8 -5 11 3 10 28
-1 19 -6 35 -10 35 -5 0 -5 4 -2 10 3 5 1 10 -5 10 -6 0 -8 5 -5 10 3 6 1 10
-4 10 -6 0 -11 6 -11 14 0 8 -6 17 -12 19 -9 4 -9 6 1 6 12 1 11 4 -2 14 -10
6 -19 23 -22 35 -2 13 -12 31 -22 40 -10 10 -19 24 -21 32 -2 8 -8 17 -13 18
-5 2 -7 8 -3 13 3 5 1 9 -5 9 -5 0 -8 9 -6 20 2 11 0 20 -5 20 -5 0 -8 12 -6
28 1 15 -1 35 -6 45 -6 12 -5 17 4 17 9 0 9 3 -2 10 -12 8 -12 10 -1 10 11 0
11 3 1 15 -10 12 -10 15 0 15 7 0 10 7 6 15 -3 8 -1 15 4 15 5 0 14 10 20 23
11 21 10 21 -4 3 -24 -30 -19 -11 8 28 13 19 26 33 29 30 3 -3 8 4 12 15 3 12
13 21 20 21 8 0 17 5 21 12 5 7 3 8 -6 3 -8 -5 -11 -4 -7 2 4 6 20 16 37 23
16 7 30 16 30 21 0 4 9 6 19 4 11 -2 22 3 25 11 3 8 11 14 18 13 24 -3 39 1
35 9 -3 4 13 8 34 9 22 2 48 7 58 12 12 7 22 6 31 -2 10 -9 11 -9 6 1 -6 11 4
15 30 11 4 0 11 5 15 13 7 11 9 11 9 -1 0 -11 3 -11 15 -1 8 7 15 9 15 5 0 -4
6 -3 13 2 6 6 20 9 30 8 9 -2 17 1 17 7 0 6 7 8 15 4 8 -3 15 -1 15 4 0 5 7 7
15 4 8 -4 15 -1 15 6 0 6 4 8 10 5 5 -3 23 1 40 10 17 9 35 13 40 10 5 -3 12
1 17 8 4 7 29 23 55 35 25 12 49 26 53 32 3 5 13 10 21 10 15 0 84 68 84 83 0
4 4 6 9 2 5 -3 12 4 16 15 3 11 11 20 16 20 5 0 8 3 7 8 -1 4 5 21 12 37 17
39 21 75 9 75 -5 0 -9 9 -9 20 0 11 -4 20 -10 20 -5 0 -10 8 -10 18 0 10 -9
24 -20 32 -11 8 -20 22 -20 32 0 10 -3 17 -7 16 -8 -3 -53 38 -53 47 0 14 -54
64 -63 58 -6 -3 -7 -1 -3 5 4 7 2 12 -5 12 -7 0 -10 3 -6 6 3 3 -3 15 -13 27
-11 11 -17 25 -13 30 3 6 2 8 -3 5 -10 -7 -27 11 -32 32 -2 7 -11 19 -20 27
-9 7 -13 13 -9 13 4 0 2 6 -5 14 -7 8 -16 12 -20 9 -5 -2 -8 0 -8 5 0 5 -11
21 -25 36 -14 15 -23 32 -19 37 3 5 1 8 -4 7 -8 -3 -119 104 -114 110 7 8 0
22 -8 17 -6 -3 -10 4 -10 17 0 18 -2 20 -10 8 -7 -11 -10 -11 -10 -2 0 7 -18
30 -40 51 -22 21 -37 41 -33 44 3 4 -1 7 -11 7 -9 0 -15 4 -12 8 3 5 -10 25
-29 45 -19 21 -35 41 -35 46 0 5 -7 12 -16 15 -8 3 -12 10 -9 16 3 5 -1 10
-10 10 -10 0 -15 6 -12 13 5 14 -17 39 -27 30 -3 -4 -6 1 -6 11 0 9 -7 19 -15
22 -8 4 -12 10 -9 15 3 5 -2 9 -10 9 -8 0 -18 10 -21 23 -4 12 -19 32 -33 45
-14 12 -21 22 -17 22 4 0 1 8 -8 18 -10 10 -14 22 -10 25 3 4 -1 7 -10 7 -9 0
-19 5 -23 12 -5 7 -3 8 7 3 12 -8 12 -6 0 8 -7 9 -18 14 -24 10 -6 -3 -7 -1
-3 6 4 6 1 18 -6 26 -30 33 -38 45 -38 55 0 5 -4 10 -10 10 -5 0 -10 7 -10 15
0 8 -7 15 -17 15 -9 0 -13 3 -10 6 3 4 -7 19 -23 34 -16 15 -26 30 -23 34 3 3
2 6 -4 6 -6 0 -9 9 -6 20 3 12 0 20 -7 20 -7 0 -10 7 -6 16 4 11 -1 18 -14 21
-16 4 -18 9 -9 24 11 21 73 27 84 9 9 -15 27 -12 19 3 -4 6 2 4 13 -6 16 -14
23 -15 29 -6 5 8 3 10 -6 4 -9 -5 -11 -4 -6 4 6 8 12 9 20 2 9 -7 16 -7 23 0
8 8 13 7 18 0 4 -8 13 -4 26 11 12 13 17 17 14 9 -5 -8 3 -6 21 5 15 11 25 14
21 8 -4 -8 3 -11 22 -10 16 0 27 5 25 11 -3 6 14 12 38 13 81 5 88 6 88 17 0
6 3 7 8 0 9 -13 53 -15 45 -2 -3 5 3 6 16 2 11 -3 21 -2 21 3 0 5 10 8 23 6
12 -1 37 7 55 17 18 11 31 15 28 10 -3 -5 5 -8 19 -7 14 0 25 4 25 8 0 4 7 5
15 2 8 -4 15 -1 15 6 0 6 5 8 10 5 6 -3 10 -1 10 5 0 6 4 9 9 6 5 -4 22 -1 37
4 14 6 42 13 61 16 19 3 58 19 87 34 29 16 56 27 59 24 3 -4 21 3 40 15 19 11
37 18 40 14 4 -3 14 0 24 8 15 12 16 12 8 -1 -7 -12 -6 -13 6 -3 8 6 27 14 43
17 15 3 34 10 42 17 8 6 14 8 14 3 0 -4 7 1 15 12 8 10 15 15 15 10 0 -5 7 -3
15 4 8 6 19 9 25 5 5 -3 10 -1 10 5 0 6 5 8 10 5 6 -3 10 -1 10 5 0 6 4 8 10
5 6 -3 7 1 4 10 -5 11 -2 14 10 9 13 -5 15 -2 9 12 -6 17 -5 18 12 4 15 -12
17 -12 10 -1 -6 11 -4 13 8 8 11 -4 14 -2 11 7 -3 7 3 19 12 27 10 8 15 9 11
2 -4 -6 -2 -15 4 -19 7 -4 9 -3 6 3 -4 6 1 19 9 29 14 17 15 17 10 1 -5 -14
-2 -16 13 -8 10 6 21 8 25 6 3 -3 4 -2 1 1 -2 4 0 16 6 27 7 13 7 17 1 13 -6
-3 -14 -1 -18 5 -4 7 -3 9 4 5 6 -3 15 1 20 10 8 15 10 15 15 0 5 -11 3 -15
-5 -10 -7 4 -8 3 -4 -5 4 -6 12 -9 17 -5 6 3 8 8 5 11 -8 9 35 43 46 37 5 -3
15 0 24 6 11 10 12 16 3 26 -14 17 2 18 20 2 11 -10 12 -10 7 -1 -9 17 -17 57
-9 50 3 -4 20 4 37 16 17 12 40 20 50 18 18 -3 19 -1 6 15 -14 16 -13 16 10 4
24 -13 24 -12 10 5 -14 17 -13 18 3 12 9 -3 17 -2 17 3 0 6 -5 10 -11 10 -7 0
0 9 15 21 23 18 29 19 43 7 10 -8 7 1 -7 22 -15 22 -18 30 -7 21 10 -8 17 -9
17 -3 0 6 10 9 21 7 12 -3 19 -2 15 2 -3 4 2 15 11 26 11 12 12 17 4 12 -10
-6 -12 -4 -7 4 5 7 15 10 25 7 14 -5 13 -4 -1 8 -21 16 -23 27 -4 20 8 -3 17
0 22 7 4 8 3 10 -4 5 -7 -4 -12 -3 -12 1 0 5 9 14 21 21 12 7 18 16 15 19 -3
3 -11 2 -19 -3 -7 -5 -1 1 13 14 20 19 21 21 5 15 -18 -6 -18 -5 -6 10 7 9 18
14 25 10 6 -4 4 2 -4 12 -8 10 -10 16 -4 12 7 -4 15 0 18 9 3 8 2 13 -2 10 -5
-3 -9 1 -9 9 0 8 3 13 5 10 8 -8 34 34 27 44 -3 5 -1 12 4 16 6 3 7 13 4 22
-5 12 -3 14 8 8 11 -6 12 -5 2 6 -7 7 -13 17 -13 22 0 4 6 5 13 1 8 -5 8 -2
-2 9 -9 12 -10 17 -2 17 7 0 9 5 6 10 -3 6 0 10 7 10 9 0 9 3 -2 10 -13 9 -13
10 0 10 12 0 12 2 1 9 -9 6 -10 11 -2 15 6 4 11 12 11 17 0 6 -4 8 -8 5 -5 -3
-9 1 -9 9 0 8 4 12 9 9 11 -7 10 3 -4 29 -10 20 -9 21 5 9 13 -11 15 -10 10 7
-3 12 -9 19 -13 16 -10 -6 -8 15 3 33 5 7 3 12 -5 12 -10 0 -10 2 1 9 11 7 11
9 0 14 -12 4 -11 7 1 16 14 10 7 16 -13 12 -5 -1 -6 8 -2 19 4 13 2 20 -7 20
-8 0 -9 3 -3 8 10 6 12 23 5 37 -1 3 -3 8 -4 13 -1 4 -8 18 -16 32 -8 14 -13
35 -11 48 1 12 -3 22 -9 22 -6 0 -8 5 -5 10 3 6 -2 10 -12 10 -15 0 -16 2 -3
10 10 6 11 10 3 10 -7 0 -13 9 -13 20 0 11 -5 20 -10 20 -6 0 -9 3 -9 8 4 22
-2 42 -11 37 -5 -3 -10 1 -10 10 0 10 -5 13 -12 9 -6 -4 -8 -3 -4 4 3 6 2 13
-4 17 -6 4 -8 11 -5 16 4 5 3 9 -2 9 -13 1 -52 37 -55 51 -2 8 -21 26 -43 41
-22 16 -35 28 -29 28 5 0 16 -6 24 -12 12 -11 12 -10 1 5 -7 9 -22 17 -32 17
-11 0 -19 5 -19 11 0 5 6 7 13 3 7 -4 9 -3 4 2 -5 5 -14 9 -20 9 -7 0 -12 7
-11 16 1 8 -7 16 -18 16 -21 2 -50 28 -41 37 4 3 2 6 -4 6 -5 0 -24 14 -41 30
-18 17 -36 30 -42 30 -5 0 -16 14 -25 30 -9 17 -18 30 -21 30 -3 0 -2 -6 1
-12 4 -7 0 -5 -8 5 -9 11 -22 15 -33 11 -13 -4 -15 -3 -6 3 9 7 6 16 -14 39
l-27 29 17 -30 c13 -23 7 -19 -23 15 -22 25 -41 41 -41 36 0 -5 8 -15 18 -23
15 -13 14 -13 -8 0 -14 8 -25 19 -25 25 0 6 -4 14 -9 19 -5 5 -6 3 -2 -4 12
-21 -3 -15 -30 12 -44 44 -73 60 -87 46 -9 -10 -8 -11 4 -6 10 4 28 -3 44 -18
20 -17 24 -24 12 -24 -9 0 -15 5 -14 11 1 6 -6 10 -15 10 -10 -1 -15 3 -12 8
3 5 -2 8 -12 6 -13 -2 -19 4 -20 20 -2 29 -10 37 -18 17 -4 -11 -2 -14 6 -9 7
4 8 3 4 -4 -4 -6 -13 -9 -21 -6 -8 4 -12 11 -8 18 13 20 11 35 -4 29 -12 -5
-12 -7 -1 -14 10 -7 9 -9 -4 -9 -11 0 -18 8 -18 19 0 26 -23 44 -38 29 -8 -8
-16 -3 -29 20 -10 18 -23 32 -30 32 -7 0 -17 8 -22 18 -6 9 -11 13 -11 7 0 -5
-8 1 -16 15 -8 14 -13 17 -10 8 3 -12 1 -15 -10 -11 -9 3 -13 13 -9 27 5 17 4
18 -4 6 -8 -11 -13 -12 -19 -3 -4 7 -17 14 -27 16 -11 2 -30 8 -41 15 -12 6
-25 8 -29 4 -5 -4 -5 -1 -1 6 4 7 12 9 18 6 5 -4 4 4 -2 17 -17 32 -17 32 -24
14 -4 -11 -2 -14 6 -9 7 4 8 3 4 -5 -6 -8 -12 -9 -20 -2 -7 6 -17 7 -21 3 -5
-4 -5 -1 -1 6 4 7 13 9 19 6 7 -4 8 -3 4 2 -5 5 -13 10 -18 10 -5 1 -13 2 -18
3 -5 0 -13 10 -16 21 -4 11 -15 20 -26 20 -11 0 -17 5 -14 10 3 6 1 10 -5 10
-6 0 -9 4 -6 9 3 4 -5 8 -17 7 -12 -1 -28 4 -34 11 -15 14 -17 27 -3 18 6 -3
10 -1 10 4 0 6 -10 10 -22 8 -15 -1 -22 3 -20 12 3 12 1 12 -14 0 -10 -8 -15
-9 -11 -2 7 11 -28 30 -47 25 -5 -2 -6 5 -2 14 5 14 4 15 -9 4 -11 -9 -15 -9
-15 -1 0 7 -4 9 -10 6 -5 -3 -10 1 -10 9 0 9 -4 16 -10 16 -5 0 -8 -6 -6 -12
1 -7 1 -10 -1 -5 -3 4 -10 4 -15 1 -6 -4 -8 -2 -4 4 8 14 -32 42 -50 35 -8 -3
-14 0 -14 6 0 6 -9 11 -19 11 -11 0 -21 4 -23 10 -2 5 -20 10 -40 12 -28 1
-35 5 -27 14 7 9 5 12 -8 10 -10 -2 -23 3 -31 10 -7 7 -19 11 -27 8 -8 -4 -15
-1 -15 5 0 6 -9 11 -20 11 -11 0 -20 5 -20 10 0 6 -4 10 -10 10 -5 0 -7 -7 -4
-15 4 -8 1 -15 -6 -15 -6 0 -8 5 -5 10 3 6 -1 13 -9 16 -9 3 -13 11 -10 16 4
6 -4 5 -16 -2 -18 -10 -21 -9 -15 1 6 9 4 11 -7 6 -22 -8 -30 3 -15 21 10 13
9 14 -2 8 -7 -5 -16 -5 -20 0 -3 5 -16 15 -28 21 -20 11 -22 11 -17 -5 5 -16
5 -16 -6 1 -6 9 -18 17 -25 17 -8 0 -15 5 -15 10 0 6 -7 10 -16 10 -9 0 -12 5
-8 13 5 7 0 6 -11 -3 -17 -14 -17 -13 -12 10 4 14 4 19 1 13 -7 -16 -34 -17
-34 -2 0 8 -6 7 -17 -2 -14 -12 -16 -12 -8 0 6 11 4 13 -9 8 -10 -4 -19 -1
-23 9 -3 9 -13 14 -24 11 -11 -3 -17 -2 -14 3 3 4 -2 11 -11 14 -8 3 -13 2
-10 -2 3 -5 -1 -9 -9 -9 -8 0 -12 4 -9 9 3 4 -6 8 -20 8 -14 0 -26 5 -26 11 0
8 -5 7 -15 -1 -13 -11 -14 -10 -8 6 6 16 4 17 -9 7 -19 -16 -32 -4 -15 15 10
13 9 14 -9 4 -23 -12 -44 0 -44 26 0 7 -8 12 -17 11 -30 -4 -52 11 -45 29 5
14 3 15 -9 5 -12 -10 -18 -8 -29 7 -8 11 -18 20 -23 20 -14 0 -36 27 -29 36 4
5 -1 2 -10 -5 -11 -8 -18 -9 -18 -3 0 6 -9 14 -20 17 -11 4 -18 11 -15 16 3 5
-1 6 -9 3 -9 -3 -16 -1 -16 5 0 6 -7 11 -15 11 -15 0 -55 19 -65 31 -4 5 -36
18 -60 24 -3 1 -18 7 -35 14 -16 7 -41 17 -55 23 -32 12 -141 78 -160 97 -8 7
-15 23 -15 35 0 12 -4 27 -9 35 -7 10 -6 12 4 6 10 -6 11 -4 6 11 -5 10 -10
28 -13 39 -3 11 -7 27 -11 35 -7 18 -9 29 -11 53 0 9 -8 17 -16 17 -8 0 -15 7
-15 16 0 22 -41 104 -52 104 -5 0 -17 18 -27 40 -10 22 -21 37 -24 33 -4 -3
-7 -1 -7 6 0 7 -12 25 -27 40 -36 34 -73 79 -73 88 0 3 -8 15 -17 25 -11 12
-18 39 -20 76 -4 107 -6 122 -16 122 -5 0 -4 6 2 14 9 10 9 15 0 18 -16 5 -18
77 -2 93 7 8 15 27 17 43 2 16 6 34 10 41 4 7 2 18 -4 26 -7 8 -8 15 -3 15 5
0 9 24 9 53 1 28 3 63 6 77 3 14 1 33 -4 43 -6 12 -5 17 4 17 8 0 9 3 3 8 -12
9 -18 32 -7 31 21 -4 24 3 6 16 -13 10 -14 14 -5 15 11 0 11 3 0 16 -10 13
-10 17 0 24 9 5 10 9 2 14 -6 4 -9 12 -6 17 4 5 1 9 -4 9 -6 0 -11 9 -11 21 0
13 -4 18 -12 13 -9 -5 -9 -2 1 9 10 13 10 17 1 17 -7 0 -10 8 -7 20 3 11 0 20
-6 20 -7 0 -5 5 3 10 11 7 11 10 2 10 -7 0 -10 5 -7 10 3 6 2 10 -3 10 -12 0
-11 32 2 49 8 11 8 13 0 8 -13 -7 -28 19 -19 33 3 5 -4 12 -15 15 -18 6 -19 9
-8 23 7 10 8 14 3 9 -11 -10 -48 70 -39 85 4 6 3 8 -3 5 -6 -4 -13 0 -16 7 -3
8 -1 17 6 20 7 2 3 5 -7 5 -11 1 -16 4 -13 8 4 3 1 13 -5 21 -16 19 -19 44 -5
35 7 -4 6 1 -2 10 -7 9 -16 15 -20 13 -9 -5 -31 21 -24 28 4 3 -2 6 -13 6 -16
0 -17 2 -4 11 12 9 12 10 -5 6 -17 -3 -20 2 -23 32 -1 20 -7 38 -12 39 -6 2
-10 8 -10 14 0 13 -26 38 -40 38 -7 0 -10 7 -7 15 4 8 1 17 -5 21 -7 5 -8 2
-3 -6 5 -9 4 -11 -4 -6 -9 6 -9 11 1 24 11 13 10 15 -4 9 -14 -5 -18 -1 -18
15 0 12 -3 19 -6 15 -9 -9 -34 19 -34 37 0 8 -4 18 -10 21 -5 3 -10 1 -10 -5
0 -7 -7 -5 -16 4 -8 9 -24 21 -35 27 -11 5 -16 15 -13 21 4 6 3 8 -3 5 -6 -4
-13 0 -17 8 -3 8 -12 15 -21 15 -8 0 -15 4 -15 10 0 5 -3 9 -7 8 -14 -4 -53
13 -53 23 0 5 -3 8 -7 7 -16 -4 -53 14 -48 23 4 5 0 9 -8 9 -21 0 -68 26 -60
33 3 4 -8 7 -25 7 -18 0 -32 4 -32 8 0 4 -9 8 -21 9 -23 2 -51 22 -45 32 2 3
-7 11 -20 18 -18 8 -22 8 -17 0 4 -8 1 -7 -9 1 -9 7 -22 11 -29 10 -8 -2 -13
3 -11 11 3 12 0 12 -12 1 -13 -10 -16 -10 -16 4 0 10 -4 14 -10 11 -5 -3 -10
-1 -10 4 0 6 -3 10 -7 10 -20 -3 -34 2 -28 11 3 6 -1 10 -9 10 -9 0 -16 5 -16
10 0 6 -6 10 -14 10 -8 0 -18 5 -22 12 -5 7 -3 8 6 3 8 -5 11 -4 6 3 -4 6 -12
9 -19 6 -7 -2 -22 4 -32 16 -10 11 -24 20 -32 20 -7 0 -13 5 -13 11 0 5 -4 7
-10 4 -14 -8 -50 13 -47 28 1 7 -6 11 -17 9 -10 -2 -15 1 -12 6 3 6 -4 9 -17
8 -25 -3 -65 20 -58 32 3 4 -9 11 -25 17 -16 5 -32 14 -36 20 -5 7 -8 7 -8 0
0 -5 -5 -3 -10 5 -7 10 -10 11 -10 2 0 -10 -7 -9 -29 2 -16 9 -31 12 -35 9 -3
-4 -6 -1 -6 6 0 7 -4 9 -10 6 -5 -3 -10 -1 -10 5 0 6 -4 8 -10 5 -5 -3 -10 -2
-10 4 0 10 -38 27 -52 23 -5 -1 -8 2 -8 6 0 8 -14 12 -52 13 -9 0 -20 9 -23
19 -4 13 -14 18 -33 16 -15 -2 -30 1 -33 6 -3 5 -25 9 -48 10 -24 0 -45 6 -47
12 -5 14 -44 19 -44 5 0 -5 -11 -2 -25 7 -15 9 -37 14 -54 12 -17 -2 -28 -1
-25 4 3 4 -2 8 -11 8 -8 0 -18 7 -21 15 -4 10 -13 13 -26 9 -16 -5 -19 -3 -12
7 6 12 5 12 -9 0 -12 -9 -17 -10 -17 -2 0 7 -4 10 -9 6 -5 -3 -17 3 -27 12
-10 10 -19 17 -21 16 -2 -2 -15 -3 -29 -3 -16 0 -23 4 -18 11 5 8 1 8 -13 0
-23 -11 -34 -6 -27 14 4 8 -6 12 -31 10 -22 -1 -39 4 -44 13 -4 7 -11 13 -14
13 -28 -4 -47 1 -42 9 4 6 3 9 -2 8 -19 -5 -83 14 -83 25 0 7 -4 6 -10 -3 -8
-12 -10 -12 -10 -1 0 8 -3 12 -6 8 -4 -3 -13 1 -21 9 -8 8 -19 12 -24 9 -5 -4
-9 -1 -9 4 0 6 -9 11 -20 11 -14 0 -20 7 -20 23 0 18 -2 19 -10 7 -5 -8 -10
-10 -10 -5 0 6 -9 11 -20 12 -13 1 -18 -3 -14 -10 3 -7 0 -5 -8 4 -7 9 -19 14
-25 12 -7 -3 -13 0 -13 6 0 6 -3 10 -7 10 -25 -4 -53 2 -48 11 3 5 -5 15 -19
22 -14 6 -26 14 -26 18 0 4 -10 7 -22 6 -13 0 -31 7 -41 17 -15 15 -27 16 -72
7 -5 -1 -13 -1 -17 0 -5 1 -12 4 -18 5 -5 1 -11 3 -12 5 -2 1 -12 3 -22 5 -10
2 -22 9 -26 15 -4 6 -17 12 -28 13 -12 1 -22 6 -22 11 0 5 -3 7 -6 4 -3 -4
-30 4 -59 17 -39 18 -55 21 -59 12 -3 -9 -7 -8 -15 3 -6 8 -11 11 -11 5 0 -5
-5 -4 -11 2 -6 6 -18 9 -26 6 -8 -3 -18 0 -22 6 -5 7 -27 12 -49 13 -24 0 -42
5 -42 12 0 6 -5 4 -10 -4 -5 -8 -10 -10 -10 -5 0 6 -12 11 -27 12 -99 5 -130
9 -126 16 2 4 -5 7 -17 7 -11 0 -30 9 -42 20 -15 14 -25 17 -34 9 -7 -5 -15
-6 -18 -1 -7 12 -76 13 -76 1 0 -6 -7 -3 -16 5 -8 9 -20 13 -26 10 -6 -4 -14
0 -19 7 -8 12 -11 12 -19 -1 -9 -13 -11 -13 -19 -1 -8 12 -12 12 -25 2 -13
-11 -16 -11 -16 2 0 17 -17 24 -64 26 -16 0 -35 6 -42 12 -10 9 -14 9 -14 0 0
-6 -9 -11 -21 -11 -11 0 -18 3 -16 8 3 4 -9 8 -25 9 -17 1 -36 7 -43 13 -10 8
-15 8 -20 -1 -6 -8 -10 -7 -16 2 -7 11 -9 11 -9 -1 0 -13 -1 -13 -10 0 -8 12
-10 12 -10 1 0 -11 -3 -11 -15 -1 -10 9 -15 9 -15 1 0 -6 -5 -11 -11 -11 -5 0
-7 5 -3 12 5 7 2 9 -9 5 -8 -3 -21 1 -27 9 -7 8 -21 14 -31 14 -10 0 -20 4
-24 9 -7 13 -45 10 -45 -4 0 -5 -4 -4 -9 3 -4 8 -11 13 -15 13 -30 -4 -46 0
-40 12 6 9 4 9 -7 1 -16 -12 -29 -12 -46 -1 -6 4 -14 3 -18 -2 -4 -7 -15 -7
-30 -1 -14 5 -25 6 -25 1 0 -5 -13 -4 -29 2 -17 6 -27 15 -24 20 3 5 -5 3 -18
-3 -18 -10 -24 -10 -27 -1 -3 9 -7 9 -18 0 -11 -9 -14 -8 -14 2 0 11 -2 11
-10 -1 -8 -12 -10 -12 -10 -1 0 9 -4 10 -12 4 -15 -11 -28 -11 -45 0 -8 5 -13
3 -13 -5 0 -9 -3 -9 -10 2 -5 8 -10 10 -10 4 0 -7 -13 -11 -30 -10 -16 0 -30
4 -30 9 0 4 -5 5 -10 2 -6 -4 -8 -9 -6 -13 2 -4 -8 -7 -24 -7 -18 0 -26 4 -23
13 3 6 0 12 -6 12 -6 0 -11 -5 -11 -11 0 -6 -5 -7 -12 -2 -19 11 -39 13 -32 2
3 -5 1 -9 -5 -9 -5 0 -12 6 -14 13 -4 9 -6 9 -6 -1 -1 -7 -5 -10 -11 -7 -5 3
-10 2 -10 -3 0 -4 -27 -8 -60 -8 -33 1 -60 -2 -60 -5 0 -3 -7 -6 -15 -6 -8 0
-15 4 -15 8 0 9 -126 6 -136 -4 -4 -4 -13 -2 -20 4 -11 9 -15 7 -20 -5 -4 -11
-10 -13 -18 -7 -20 17 -25 16 -39 -4 -11 -14 -18 -16 -28 -9 -12 9 -33 11 -41
5 -2 -2 -14 -4 -28 -7 -14 -2 -32 -7 -40 -11 -24 -10 -50 -10 -50 -1 0 5 -5 6
-10 3 -6 -4 -10 -3 -9 2 3 20 -2 34 -11 28 -5 -3 -10 -1 -10 5 0 6 -4 9 -9 6
-5 -3 -11 4 -14 15 -3 11 -15 23 -26 26 -11 3 -19 9 -16 13 2 4 -7 13 -20 20
-13 7 -22 17 -19 22 3 5 2 8 -3 7 -19 -3 -34 2 -29 10 3 5 -4 11 -15 14 -14 4
-20 11 -16 21 4 10 0 14 -13 11 -10 -2 -21 3 -24 11 -4 11 -10 12 -24 5 -10
-5 -30 -8 -45 -7 -15 2 -27 -1 -27 -6 0 -5 -4 -6 -10 -3 -5 3 -10 1 -10 -4 0
-6 -11 -10 -25 -9 -14 1 -25 6 -25 10 0 4 -10 12 -21 19 -17 9 -20 8 -13 -3 6
-11 5 -11 -9 1 -14 11 -17 11 -17 0 0 -9 -3 -10 -8 -3 -4 6 -16 16 -27 22 -11
6 -14 12 -7 12 7 0 10 5 7 10 -4 6 -12 8 -18 4 -7 -3 -4 1 6 9 14 11 15 16 5
20 -10 4 -10 6 1 6 11 1 11 4 1 16 -9 10 -9 15 -1 15 6 0 11 5 11 11 0 5 -6 7
-12 3 -9 -5 -9 -2 1 9 7 9 9 17 4 17 -5 0 -10 7 -10 15 0 8 4 12 9 9 4 -3 8
-1 8 5 0 5 -5 13 -10 16 -8 5 -8 11 0 20 8 10 8 15 0 20 -8 5 -7 11 2 23 7 9
8 13 3 10 -6 -4 -17 3 -25 15 -12 20 -12 21 4 8 16 -13 16 -12 5 12 -7 15 -16
27 -21 27 -5 0 -6 5 -3 10 3 6 -1 10 -9 10 -9 0 -16 5 -16 10 0 6 -6 10 -12 9
-26 -3 -39 1 -33 11 3 6 -1 10 -10 10 -9 0 -14 -4 -11 -8 3 -5 -1 -9 -9 -9 -8
0 -12 4 -9 9 8 13 -11 9 -24 -4 -10 -10 -15 -10 -21 1 -5 8 -14 10 -22 5 -17
-10 -59 -12 -59 -2 0 4 -4 8 -10 8 -5 0 -10 -5 -10 -11z m-696 -727 c3 -5 -1
-9 -9 -9 -8 0 -12 4 -9 9 3 4 7 8 9 8 2 0 6 -4 9 -8z m-44 -12 c0 -5 -5 -10
-11 -10 -5 0 -7 5 -4 10 3 6 8 10 11 10 2 0 4 -4 4 -10z m-440 -546 c0 -8 -19
-13 -24 -6 -3 5 1 9 9 9 8 0 15 -2 15 -3z m9285 -3582 c-3 -3 -11 0 -18 7 -9
10 -8 11 6 5 10 -3 15 -9 12 -12z m660 -421 c3 -5 2 -12 -3 -15 -5 -3 -9 1 -9
9 0 17 3 19 12 6z m853 -1356 c-3 -3 -9 2 -12 12 -6 14 -5 15 5 6 7 -7 10 -15
7 -18z m-114 -247 c-3 -4 -11 -8 -17 -7 -9 0 -9 2 0 5 7 3 9 13 6 22 -4 14 -3
14 5 2 6 -8 8 -18 6 -22z m-239 -248 c-3 -5 -10 -10 -16 -10 -5 0 -9 5 -9 10
0 6 7 10 16 10 8 0 12 -4 9 -10z"/>
<path d="M6435 18320 c-3 -5 -1 -10 4 -10 6 0 11 5 11 10 0 6 -2 10 -4 10 -3
0 -8 -4 -11 -10z"/>
<path d="M14190 13631 c0 -6 4 -12 8 -15 5 -3 9 1 9 9 0 8 -4 15 -9 15 -4 0
-8 -4 -8 -9z"/>
<path d="M14905 11919 c-4 -6 -4 -13 -1 -16 3 -4 6 -1 6 6 0 7 5 9 12 5 7 -4
8 -3 4 4 -9 15 -13 15 -21 1z"/>
<path d="M14814 11838 c-4 -7 -4 -10 1 -6 4 4 15 2 24 -5 14 -11 14 -10 2 6
-16 20 -18 21 -27 5z"/>
<path d="M14795 11810 c3 -5 8 -10 11 -10 2 0 4 5 4 10 0 6 -5 10 -11 10 -5 0
-7 -4 -4 -10z"/>
<path d="M14765 11800 c-3 -5 -1 -10 4 -10 6 0 11 5 11 10 0 6 -2 10 -4 10 -3
0 -8 -4 -11 -10z"/>
<path d="M3005 11311 c-3 -5 -2 -12 3 -15 5 -3 9 1 9 9 0 17 -3 19 -12 6z"/>
</g>
</svg>
